<?xml version="1.0" encoding="UTF-8" standalone="no"?><!DOCTYPE svg PUBLIC "-//W3C//DTD SVG 1.1//EN" "http://www.w3.org/Graphics/SVG/1.1/DTD/svg11.dtd"><svg width="4000px" height="2500px" version="1.1" xmlns="http://www.w3.org/2000/svg" xmlns:xlink="http://www.w3.org/1999/xlink" xml:space="preserve" xmlns:serif="http://www.serif.com/" style="fill-rule:evenodd;clip-rule:evenodd;stroke-linejoin:round;stroke-miterlimit:2;"><g transform="matrix(2.2689,0,0,2.2689,-238.082,-2761.71)"><g id="c99"><g id="c29"><g transform="matrix(0.441052,0,0,0.441052,105.669,1217.14)"><rect x="111.817" y="218.725" width="3805.79" height="2107.56" style="fill:rgb(174,211,240);"/></g><path d="M302.478,2243.15C436.92,2169.5 564.132,2092.06 624.142,2069.74C860.806,1981.75 1111.47,2013.1 1349.77,2085.11C1420.56,2106.5 1487.5,2139.12 1559.93,2156.77C1640.38,2176.38 1731.86,2178.61 1814.59,2183.56C1820.91,2183.94 1827.22,2184.1 1833.54,2184.05L1833.54,2243.15L302.478,2243.15ZM997.205,1313.61C874.638,1360.43 758.294,1417.68 669.238,1453.21C508.167,1517.47 331.505,1575.92 154.986,1595.4L154.986,1313.61L997.205,1313.61ZM1833.54,1570.84C1813.92,1563.75 1794.94,1555.96 1777.06,1546.94C1679.25,1497.62 1641.28,1385.49 1563,1313.61L1833.54,1313.61L1833.54,1570.84Z" style="fill:rgb(195,220,243);"/><g transform="matrix(0.441052,0,0,0.441052,105.669,1217.14)"><rect x="111.817" y="218.725" width="3805.79" height="2107.56" style="fill:none;"/><clipPath id="_clip1"><rect x="111.817" y="218.725" width="3805.79" height="2107.56"/></clipPath><g clip-path="url(#_clip1)"><g transform="matrix(3.41473,0,0,2.78961,-2470.41,-3643.27)"><path d="M968.432,1662.22L1034.26,1591.1L1040.62,1593.07L974.788,1664.19L1043.18,1685.34L1109.01,1614.22L1115.37,1616.19L1049.54,1687.31L1117.93,1708.47L1183.76,1637.34L1190.12,1639.31L1124.29,1710.43L1192.68,1731.59L1258.51,1660.46L1264.87,1662.43L1199.04,1733.55L1267.43,1754.71L1333.26,1683.59L1339.62,1685.55L1273.79,1756.67L1342.18,1777.83L1408.01,1706.71L1414.37,1708.67L1348.54,1779.79L1416.93,1800.95L1482.76,1729.83L1489.12,1731.79L1423.29,1802.91L1491.68,1824.07L1557.51,1752.95L1563.87,1754.91L1498.04,1826.04L1566.43,1847.19L1632.26,1776.07L1638.62,1778.04L1572.79,1849.16L1641.18,1870.31L1707.02,1799.19L1713.37,1801.16L1647.54,1872.28L1715.93,1893.43L1781.77,1822.31L1788.12,1824.28L1722.29,1895.4L1790.68,1916.56L1856.52,1845.43L1862.87,1847.4L1797.04,1918.52L1865.43,1939.68L1931.27,1868.56L1937.62,1870.52L1871.79,1941.64L1940.18,1962.8L2006.02,1891.68L2012.37,1893.64L1946.54,1964.76L2022.37,1988.22L2015.9,1995.21L1940.07,1971.76L1886.49,2029.64L1962.32,2053.1L1955.85,2060.09L1880.02,2036.63L1826.44,2094.52L1902.27,2117.97L1895.8,2124.96L1819.97,2101.51L1766.39,2159.39L1842.22,2182.85L1835.75,2189.84L1759.92,2166.39L1706.34,2224.27L1782.17,2247.72L1775.69,2254.72L1699.87,2231.26L1646.29,2289.15L1722.12,2312.6L1715.64,2319.59L1639.82,2296.14L1586.24,2354.02L1662.07,2377.48L1655.6,2384.47L1579.77,2361.02L1510.55,2435.8L1504.2,2433.83L1573.41,2359.05L1505.02,2337.9L1435.8,2412.67L1429.44,2410.71L1498.66,2335.93L1430.27,2314.77L1361.05,2389.55L1354.69,2387.59L1423.91,2312.81L1355.52,2291.65L1286.3,2366.43L1279.94,2364.47L1349.16,2289.69L1280.77,2268.53L1211.55,2343.31L1205.19,2341.35L1274.41,2266.57L1206.02,2245.41L1136.8,2320.19L1130.44,2318.22L1199.66,2243.45L1131.27,2222.29L1062.05,2297.07L1055.69,2295.1L1124.91,2220.32L1056.52,2199.17L987.3,2273.95L980.944,2271.98L1050.16,2197.2L981.765,2176.05L912.55,2250.83L906.194,2248.86L975.409,2174.08L907.015,2152.93L837.8,2227.7L831.444,2225.74L900.659,2150.96L832.265,2129.8L763.05,2204.58L756.693,2202.62L825.909,2127.84L757.515,2106.68L688.299,2181.46L681.943,2179.5L751.159,2104.72L682.765,2083.56L613.549,2158.34L607.193,2156.38L676.408,2081.6L608.014,2060.44L538.799,2135.22L532.443,2133.25L601.658,2058.47L510.582,2030.3L517.054,2023.31L608.131,2051.48L661.708,1993.6L570.632,1965.43L577.104,1958.43L668.181,1986.61L721.759,1928.72L630.682,1900.55L637.155,1893.56L728.231,1921.73L781.809,1863.85L690.733,1835.67L697.205,1828.68L788.281,1856.85L841.859,1798.97L750.783,1770.8L757.255,1763.81L848.332,1791.98L901.909,1734.09L810.833,1705.92L817.305,1698.93L908.382,1727.1L961.96,1669.22L870.883,1641.04L877.356,1634.05L968.432,1662.22ZM1511.49,2330.9L1579.88,2352.06L1633.46,2294.17L1565.07,2273.02L1511.49,2330.9ZM1436.74,2307.78L1505.13,2328.94L1558.71,2271.05L1490.32,2249.9L1436.74,2307.78ZM1361.99,2284.66L1430.38,2305.82L1483.96,2247.93L1415.57,2226.78L1361.99,2284.66ZM1571.54,2266.03L1639.93,2287.18L1693.51,2229.3L1625.12,2208.14L1571.54,2266.03ZM1287.24,2261.54L1355.63,2282.7L1409.21,2224.81L1340.82,2203.66L1287.24,2261.54ZM1496.79,2242.91L1565.18,2264.06L1618.76,2206.18L1550.37,2185.02L1496.79,2242.91ZM1212.49,2238.42L1280.88,2259.57L1334.46,2201.69L1266.07,2180.53L1212.49,2238.42ZM1422.04,2219.78L1490.43,2240.94L1544.01,2183.05L1475.62,2161.9L1422.04,2219.78ZM1137.74,2215.3L1206.13,2236.45L1259.71,2178.57L1191.32,2157.41L1137.74,2215.3ZM1631.59,2201.15L1699.98,2222.3L1753.56,2164.42L1685.17,2143.26L1631.59,2201.15ZM1347.29,2196.66L1415.68,2217.82L1469.26,2159.93L1400.87,2138.78L1347.29,2196.66ZM1062.99,2192.18L1131.38,2213.33L1184.96,2155.45L1116.57,2134.29L1062.99,2192.18ZM1556.84,2178.03L1625.23,2199.18L1678.81,2141.3L1610.42,2120.14L1556.84,2178.03ZM1272.54,2173.54L1340.93,2194.7L1394.51,2136.81L1326.12,2115.66L1272.54,2173.54ZM988.238,2169.05L1056.63,2190.21L1110.21,2132.33L1041.82,2111.17L988.238,2169.05ZM1482.09,2154.91L1550.48,2176.06L1604.06,2118.18L1535.67,2097.02L1482.09,2154.91ZM1197.79,2150.42L1266.18,2171.57L1319.76,2113.69L1251.37,2092.54L1197.79,2150.42ZM913.488,2145.93L981.882,2167.09L1035.46,2109.2L967.065,2088.05L913.488,2145.93ZM1691.64,2136.27L1760.03,2157.43L1813.61,2099.54L1745.22,2078.39L1691.64,2136.27ZM1407.34,2131.79L1475.73,2152.94L1529.31,2095.06L1460.92,2073.9L1407.34,2131.79ZM1123.04,2127.3L1191.43,2148.45L1245.01,2090.57L1176.62,2069.41L1123.04,2127.3ZM838.737,2122.81L907.132,2143.97L960.709,2086.08L892.315,2064.93L838.737,2122.81ZM1616.89,2113.15L1685.28,2134.31L1738.86,2076.42L1670.47,2055.27L1616.89,2113.15ZM1332.59,2108.66L1400.98,2129.82L1454.56,2071.94L1386.17,2050.78L1332.59,2108.66ZM1048.29,2104.18L1116.68,2125.33L1170.26,2067.45L1101.87,2046.29L1048.29,2104.18ZM763.987,2099.69L832.381,2120.85L885.959,2062.96L817.565,2041.81L763.987,2099.69ZM1542.14,2090.03L1610.53,2111.19L1664.11,2053.3L1595.72,2032.15L1542.14,2090.03ZM1257.84,2085.54L1326.23,2106.7L1379.81,2048.82L1311.42,2027.66L1257.84,2085.54ZM973.538,2081.06L1041.93,2102.21L1095.51,2044.33L1027.12,2023.17L973.538,2081.06ZM689.237,2076.57L757.631,2097.72L811.209,2039.84L742.815,2018.69L689.237,2076.57ZM1751.69,2071.4L1820.09,2092.55L1873.66,2034.67L1805.27,2013.51L1751.69,2071.4ZM1467.39,2066.91L1535.78,2088.06L1589.36,2030.18L1520.97,2009.03L1467.39,2066.91ZM1183.09,2062.42L1251.48,2083.58L1305.06,2025.69L1236.67,2004.54L1183.09,2062.42ZM898.788,2057.94L967.182,2079.09L1020.76,2021.21L952.365,2000.05L898.788,2057.94ZM614.487,2053.45L682.881,2074.6L736.459,2016.72L668.065,1995.57L614.487,2053.45ZM1676.94,2048.28L1745.33,2069.43L1798.91,2011.55L1730.52,1990.39L1676.94,2048.28ZM1392.64,2043.79L1461.03,2064.94L1514.61,2007.06L1446.22,1985.9L1392.64,2043.79ZM1108.34,2039.3L1176.73,2060.46L1230.31,2002.57L1161.92,1981.42L1108.34,2039.3ZM824.037,2034.81L892.432,2055.97L946.009,1998.09L877.615,1976.93L824.037,2034.81ZM1602.19,2025.15L1670.58,2046.31L1724.16,1988.42L1655.77,1967.27L1602.19,2025.15ZM1317.89,2020.67L1386.28,2041.82L1439.86,1983.94L1371.47,1962.78L1317.89,2020.67ZM1033.59,2016.18L1101.98,2037.34L1155.56,1979.45L1087.17,1958.3L1033.59,2016.18ZM749.287,2011.69L817.681,2032.85L871.259,1974.96L802.865,1953.81L749.287,2011.69ZM1811.74,2006.52L1880.13,2027.67L1933.71,1969.79L1865.32,1948.63L1811.74,2006.52ZM1527.44,2002.03L1595.83,2023.19L1649.41,1965.3L1581.02,1944.15L1527.44,2002.03ZM1243.14,1997.55L1311.53,2018.7L1365.11,1960.82L1296.72,1939.66L1243.14,1997.55ZM958.838,1993.06L1027.23,2014.21L1080.81,1956.33L1012.42,1935.17L958.838,1993.06ZM674.537,1988.57L742.931,2009.73L796.509,1951.84L728.115,1930.69L674.537,1988.57ZM1736.99,1983.4L1805.38,2004.55L1858.96,1946.67L1790.57,1925.51L1736.99,1983.4ZM1452.69,1978.91L1521.08,2000.07L1574.66,1942.18L1506.27,1921.03L1452.69,1978.91ZM1168.39,1974.42L1236.78,1995.58L1290.36,1937.69L1221.97,1916.54L1168.39,1974.42ZM884.088,1969.94L952.482,1991.09L1006.06,1933.21L937.665,1912.05L884.088,1969.94ZM1662.24,1960.28L1730.63,1981.43L1784.21,1923.55L1715.82,1902.39L1662.24,1960.28ZM1377.94,1955.79L1446.33,1976.94L1499.91,1919.06L1431.52,1897.91L1377.94,1955.79ZM1093.64,1951.3L1162.03,1972.46L1215.61,1914.57L1147.22,1893.42L1093.64,1951.3ZM809.337,1946.82L877.732,1967.97L931.309,1910.09L862.915,1888.93L809.337,1946.82ZM1587.49,1937.16L1655.88,1958.31L1709.46,1900.43L1641.07,1879.27L1587.49,1937.16ZM1303.19,1932.67L1371.58,1953.82L1425.16,1895.94L1356.77,1874.79L1303.19,1932.67ZM1018.89,1928.18L1087.28,1949.34L1140.86,1891.45L1072.47,1870.3L1018.89,1928.18ZM734.587,1923.69L802.981,1944.85L856.559,1886.97L788.165,1865.81L734.587,1923.69ZM1512.74,1914.03L1581.13,1935.19L1634.71,1877.31L1566.32,1856.15L1512.74,1914.03ZM1228.44,1909.55L1296.83,1930.7L1350.41,1872.82L1282.02,1851.66L1228.44,1909.55ZM944.138,1905.06L1012.53,1926.22L1066.11,1868.33L997.716,1847.18L944.138,1905.06ZM1437.99,1890.91L1506.38,1912.07L1559.96,1854.18L1491.57,1833.03L1437.99,1890.91ZM1153.69,1886.43L1222.08,1907.58L1275.66,1849.7L1207.27,1828.54L1153.69,1886.43ZM869.388,1881.94L937.782,1903.1L991.36,1845.21L922.965,1824.06L869.388,1881.94ZM1363.24,1867.79L1431.63,1888.95L1485.21,1831.06L1416.82,1809.91L1363.24,1867.79ZM1078.94,1863.31L1147.33,1884.46L1200.91,1826.58L1132.52,1805.42L1078.94,1863.31ZM794.637,1858.82L863.032,1879.97L916.609,1822.09L848.215,1800.93L794.637,1858.82ZM1288.49,1844.67L1356.88,1865.83L1410.46,1807.94L1342.07,1786.79L1288.49,1844.67ZM1004.19,1840.18L1072.58,1861.34L1126.16,1803.45L1057.77,1782.3L1004.19,1840.18ZM1213.74,1821.55L1282.13,1842.7L1335.71,1784.82L1267.32,1763.67L1213.74,1821.55ZM929.438,1817.06L997.832,1838.22L1051.41,1780.33L983.016,1759.18L929.438,1817.06ZM1138.99,1798.43L1207.38,1819.58L1260.96,1761.7L1192.57,1740.54L1138.99,1798.43ZM854.688,1793.94L923.082,1815.1L976.66,1757.21L908.266,1736.06L854.688,1793.94ZM1064.24,1775.31L1132.63,1796.46L1186.21,1738.58L1117.82,1717.42L1064.24,1775.31ZM989.488,1752.19L1057.88,1773.34L1111.46,1715.46L1043.07,1694.3L989.488,1752.19ZM914.738,1729.07L983.132,1750.22L1036.71,1692.34L968.316,1671.18L914.738,1729.07Z" style="fill:white;fill-opacity:0.45;"/></g><g transform="matrix(-1.11786,-0.557345,-1.22307,0.674472,5083.8,-150.772)"><g transform="matrix(1.1167,0,0,1.1167,-88.3311,-203.012)"><path d="M354.637,952.535L332.271,966.167L784.81,1912.02L1295.61,1616.9L354.637,952.535Z" style="fill-opacity:0.18;"/></g><g transform="matrix(0.889181,-0.420934,0.436271,0.918102,-650.842,597.538)"><g transform="matrix(0.946573,0,0,0.820951,40.438,112.715)"><rect x="756.876" y="629.524" width="944.426" height="1352.11" style="fill:rgb(247,251,255);"/></g><g transform="matrix(1,0,0,1,2.90767,29.9121)"><path d="M1099.95,862.228C1099.95,860.689 1098.7,859.439 1097.16,859.439L831.286,859.439C829.747,859.439 828.498,860.689 828.498,862.228L828.498,867.804C828.498,869.343 829.747,870.593 831.286,870.593L1097.16,870.593C1098.7,870.593 1099.95,869.343 1099.95,867.804L1099.95,862.228Z" style="fill:rgb(142,187,229);"/></g><g transform="matrix(1,0,0,1,2.90767,70.9168)"><path d="M967.247,862.228C967.247,860.689 965.997,859.439 964.458,859.439L831.286,859.439C829.747,859.439 828.498,860.689 828.498,862.228L828.498,867.804C828.498,869.343 829.747,870.593 831.286,870.593L964.458,870.593C965.997,870.593 967.247,869.343 967.247,867.804L967.247,862.228Z" style="fill:rgb(142,187,229);"/></g><g><g transform="matrix(0.459404,0,0,1,448.71,0)"><rect x="830.029" y="978.12" width="770.71" height="391.055" style="fill:rgb(217,237,255);"/></g><g transform="matrix(0.966777,0,0,0.222853,27.7207,529.127)"><rect x="830.029" y="978.12" width="770.71" height="391.055" style="fill:rgb(217,237,255);"/></g><g transform="matrix(0.115451,0,0,1,734.202,0)"><rect x="830.029" y="978.12" width="770.71" height="391.055" style="fill:rgb(204,230,255);"/></g><g transform="matrix(0.242956,0,0,0.222853,628.513,529.127)"><rect x="830.029" y="978.12" width="770.71" height="391.055" style="fill:rgb(204,230,255);"/></g></g><g transform="matrix(1,0,0,1,388.409,0)"><g transform="matrix(0.459404,0,0,1,448.71,0)"><rect x="830.029" y="978.12" width="770.71" height="391.055" style="fill:rgb(217,237,255);"/></g><g transform="matrix(0.115451,0,0,1,734.202,0)"><rect x="830.029" y="978.12" width="770.71" height="391.055" style="fill:rgb(204,230,255);"/></g></g><rect x="790.449" y="1029.54" width="832.16" height="6.372" style="fill:rgb(247,251,255);"/><g transform="matrix(1,0,0,1,0,55.3347)"><rect x="790.449" y="1029.54" width="832.16" height="6.372" style="fill:rgb(247,251,255);"/></g><g transform="matrix(1,0,0,1,0,110.669)"><rect x="790.449" y="1029.54" width="832.16" height="6.372" style="fill:rgb(247,251,255);"/></g><g transform="matrix(1,0,0,1,0,166.004)"><rect x="790.449" y="1029.54" width="832.16" height="6.372" style="fill:rgb(247,251,255);"/></g><g transform="matrix(1,0,0,1,0,221.339)"><rect x="790.449" y="1029.54" width="832.16" height="6.372" style="fill:rgb(247,251,255);"/></g><g transform="matrix(1,0,0,1,0,276.673)"><rect x="790.449" y="1029.54" width="832.16" height="6.372" style="fill:rgb(247,251,255);"/></g><g transform="matrix(-0.58595,0,0,1,1770.97,0)"><rect x="1115.47" y="1450.48" width="479.8" height="10.95" style="fill:rgb(142,187,229);"/></g><g transform="matrix(-0.58595,0,0,1,1770.97,71.1331)"><rect x="1115.47" y="1450.48" width="479.8" height="10.95" style="fill:rgb(142,187,229);"/></g><g transform="matrix(-0.759371,0,0,1,2047.62,35.2227)"><rect x="1115.47" y="1450.48" width="479.8" height="10.95" style="fill:rgb(142,187,229);"/></g><g transform="matrix(-0.335223,0,0,1,1370.99,106.356)"><rect x="1115.47" y="1450.48" width="479.8" height="10.95" style="fill:rgb(142,187,229);"/></g></g><g transform="matrix(1.1167,0,0,1.1167,-88.3311,-203.012)"><path d="M599.496,828.465L610.125,823.879L738.359,1752.55L599.496,828.465Z" style="fill-opacity:0.29;"/></g><g transform="matrix(0.980476,-0.116622,0.140146,1.00324,-259.221,27.5251)"><g transform="matrix(0.946573,0,0,0.820951,40.438,112.715)"><rect x="756.876" y="629.524" width="944.426" height="1352.11" style="fill:rgb(247,251,255);"/></g><g transform="matrix(1,0,0,1,10.3158,5.03589)"><path d="M967.247,862.228C967.247,860.689 965.997,859.439 964.458,859.439L831.286,859.439C829.747,859.439 828.498,860.689 828.498,862.228L828.498,867.804C828.498,869.343 829.747,870.593 831.286,870.593L964.458,870.593C965.997,870.593 967.247,869.343 967.247,867.804L967.247,862.228Z" style="fill:rgb(142,187,229);"/></g><rect x="830.029" y="978.12" width="770.71" height="391.055" style="fill:rgb(217,237,255);"/><g transform="matrix(0.251305,0,0,1,621.438,0)"><rect x="830.029" y="978.12" width="770.71" height="391.055" style="fill:rgb(204,230,255);"/></g><rect x="790.449" y="1029.54" width="832.16" height="6.372" style="fill:rgb(247,251,255);"/><g transform="matrix(1,0,0,1,0,55.3347)"><rect x="790.449" y="1029.54" width="832.16" height="6.372" style="fill:rgb(247,251,255);"/></g><g transform="matrix(1,0,0,1,0,110.669)"><rect x="790.449" y="1029.54" width="832.16" height="6.372" style="fill:rgb(247,251,255);"/></g><g transform="matrix(1,0,0,1,0,166.004)"><rect x="790.449" y="1029.54" width="832.16" height="6.372" style="fill:rgb(247,251,255);"/></g><g transform="matrix(1,0,0,1,0,221.339)"><rect x="790.449" y="1029.54" width="832.16" height="6.372" style="fill:rgb(247,251,255);"/></g><g transform="matrix(1,0,0,1,0,276.673)"><rect x="790.449" y="1029.54" width="832.16" height="6.372" style="fill:rgb(247,251,255);"/></g><rect x="1115.47" y="1450.48" width="479.8" height="10.95" style="fill:rgb(142,187,229);"/><g transform="matrix(0.572103,0,0,1,682.612,35.2227)"><rect x="1115.47" y="1450.48" width="479.8" height="10.95" style="fill:rgb(142,187,229);"/></g></g></g><g transform="matrix(1.97978,-0.100538,0.0740447,1.45808,-334.582,-1202.07)"><ellipse cx="483.718" cy="1947.24" rx="315.456" ry="82.784" style="fill-opacity:0.19;"/></g><g transform="matrix(1.67812,0,0,1.67812,-2671.06,-1890.81)"><g transform="matrix(2.79194,0.495392,-0.495392,2.79194,2334.92,1610.68)"><path d="M0,-54.53C1.914,-52.664 3.778,-50.717 5.471,-48.606C6.815,-46.822 8.414,-44.877 8.743,-42.638C8.944,-37.344 2.246,-36.083 -1.4,-35.591L-2.407,-35.486C-0.86,-33.536 0.71,-31.426 1.822,-29.175C6.099,-21.125 -4.522,-21.879 -8.638,-22.304L-7.575,-21.037C-5.625,-18.721 -2.285,-13.659 -5.061,-11.794C-7.739,-10.364 -11.313,-10.552 -14.488,-10.697L-15.149,-10.744C-12.972,-8.306 -11.695,-4.471 -13.292,-1.947C-13.719,-1.181 -14.294,-0.538 -14.94,0C-11.627,-2.056 -11.35,-6.572 -14.252,-10.555L-14.428,-9.988C-11.157,-9.715 -5.572,-9.03 -3.466,-11.728C-1.824,-14.921 -4.63,-19.151 -6.816,-21.924L-7.144,-20.789C-4.341,-20.505 -1.559,-20.513 0.972,-21.427C7.181,-23.654 2.749,-30.869 -0.857,-35.329L-1.087,-34.227C3.02,-34.848 9.993,-36.476 9.543,-42.56C8.726,-46.975 3.114,-51.795 0,-54.53" style="fill:rgb(200,200,200);fill-rule:nonzero;"/></g><g transform="matrix(2.79194,0.495392,-0.495392,2.79194,2393.16,1367.48)"><path d="M0,78.727C0,78.727 14.075,39.829 -23.382,19.914C-60.838,0 -83.379,35.56 -83.379,35.56C-83.379,35.56 -52.584,67.056 0,78.727" style="fill:rgb(255,200,0);fill-rule:nonzero;"/></g><g transform="matrix(2.79194,0.495392,-0.495392,2.79194,2375.54,1466.75)"><path d="M0,43.17C-52.583,31.5 -83.373,0 -83.373,0C-83.373,0 -35.95,8.481 0,43.17" style="fill:rgb(213,87,137);fill-rule:nonzero;"/></g><g transform="matrix(2.79194,0.495392,-0.495392,2.79194,2310.82,1393.62)"><path d="M0,12.731C2.055,13.846 4.624,13.084 5.739,11.029L8.61,5.739C9.725,3.685 8.963,1.115 6.908,0C4.853,-1.115 2.284,-0.353 1.169,1.702L-1.702,6.992C-2.817,9.047 -2.055,11.616 0,12.731" style="fill:rgb(236,97,152);fill-rule:nonzero;"/></g><g transform="matrix(2.79194,0.495392,-0.495392,2.79194,2237.02,1474.76)"><path d="M0,21.802L1.62,22.681C3.228,23.553 5.238,22.957 6.11,21.35L16.454,2.286L9.013,-1.751L-1.331,17.313C-2.203,18.92 -1.607,20.93 0,21.802" style="fill:rgb(236,97,152);fill-rule:nonzero;"/></g><g transform="matrix(2.79194,0.495392,-0.495392,2.79194,2393.15,1367.47)"><path d="M0,78.727C-35.95,44.038 -83.373,35.557 -83.373,35.557C-83.373,35.557 -60.834,0 -23.38,19.915C14.082,39.83 0,78.727 0,78.727" style="fill:rgb(236,97,152);fill-rule:nonzero;"/></g><g transform="matrix(0.532178,-0.0675157,0.0698986,0.550568,2029.15,1221.67)"><ellipse cx="499.995" cy="561.616" rx="47.8" ry="115.781" style="fill:url(#_Linear2);"/></g><g transform="matrix(0.144077,-0.0548031,0.092695,0.243715,2202.26,1339.03)"><ellipse cx="499.995" cy="561.616" rx="47.8" ry="115.781" style="fill:url(#_Linear3);"/></g><g transform="matrix(2.79194,0.495392,-0.495392,2.79194,1297.29,745.141)"><g opacity="0.3"><g transform="matrix(-0.443842,-0.896105,-0.896105,0.443842,346.498,159.791)"><path d="M-22.152,-33.747C-17.589,-19.602 -24.191,-2.945 -29.244,6.737C-26.403,9.614 -24.028,12.204 -22.152,14.346C-7.752,-14.419 -21.408,-32.778 -22.119,-33.708C-22.137,-33.733 -22.152,-33.747 -22.152,-33.747" style="fill:white;fill-rule:nonzero;"/></g><g transform="matrix(1,0,0,1,389.832,191.747)"><path d="M0,-25.896C-14.168,-18.426 -23.383,-7.802 -28.631,0C-29.823,-0.458 -30.99,-0.881 -32.127,-1.289C-17.907,-20.481 0,-25.896 0,-25.896" style="fill:white;fill-rule:nonzero;"/></g></g></g><g transform="matrix(2.79194,0.495392,-0.495392,2.79194,1297.29,745.141)"><g opacity="0.1"><g transform="matrix(0.953356,-0.301848,-0.301848,-0.953356,426.147,220.365)"><path d="M-9.03,-4.42C-19.633,15.142 -33.987,30.45 -46.628,41.396C-38.198,34.398 -16.062,17.047 -9.03,20.093C-2.97,22.711 -2.206,40.545 -7.766,51.84C12.493,23.661 -9.03,-4.42 -9.03,-4.42" style="fill-rule:nonzero;"/></g></g></g><g transform="matrix(2.79194,0.495392,-0.495392,2.79194,1765.56,1654.21)"><path d="M0,49.093C15.79,101.004 70.437,130.362 123.115,114.339L155.015,104.636L91.492,-81.269L70.87,-75.034C69.226,-74.62 67.575,-74.165 65.929,-73.664C13.251,-57.64 -15.792,-2.825 0,49.093" style="fill:rgb(228,60,127);fill-rule:nonzero;"/></g><g transform="matrix(0.595485,0,0,0.595485,1590.7,1126.83)"><path d="M764.872,583.721C798.409,759.86 670.927,1136.08 507.893,1169.75C438.164,1184.14 401.91,1089.79 338.003,1093.53C319.454,1094.61 328.286,1204.14 271.001,1200.66C337.018,1411.38 545.202,1551.86 775.76,1524.13L933.395,1505.18L790.224,580.715L764.872,583.721Z" style="fill:url(#_Linear4);fill-rule:nonzero;"/></g><g transform="matrix(0.736193,0.108242,-0.0786502,0.534929,1615.07,1159.31)"><ellipse cx="338.479" cy="965.419" rx="33.931" ry="150.534" style="fill:url(#_Linear5);"/></g><g transform="matrix(0.290999,-0.0389573,0.0448609,0.335097,1642.83,1492.28)"><ellipse cx="338.479" cy="965.419" rx="33.931" ry="150.534" style="fill:url(#_Linear6);"/></g><g transform="matrix(2.79194,0.495392,-0.495392,2.79194,1297.29,745.141)"><g opacity="0.05"><g transform="matrix(1,0,0,1,364.02,378.89)"><path d="M0,-15.56L-78.54,22.85L-78.55,22.85C-88.51,20 -97.93,15.6 -106.46,9.84L-7.81,-38.41L0,-15.56Z" style="fill-rule:nonzero;"/></g><g transform="matrix(-0.898321,0.439341,0.439341,0.898321,260.646,399.129)"><path d="M-112.438,-17.188L1.619,-17.188C2.758,-19.548 3.804,-21.963 4.76,-24.423L-113.349,-24.423L-112.438,-17.188Z" style="fill-rule:nonzero;"/></g></g></g><g transform="matrix(1.195,0,0,1.195,1476.02,-212.698)"><path d="M309.626,1924.12L337.45,1826.94C337.45,1826.94 356.142,1820.92 363.41,1839.61L330.602,1932.29C330.602,1932.29 314.959,1936.64 309.626,1924.12Z" style="fill:rgb(216,30,104);"/></g><g transform="matrix(-0.281841,-2.82151,-2.82151,0.281841,1996.09,1509.3)"><path d="M-87.673,-115.852C-142.021,-116.571 -186.079,-76.368 -186.08,-26.055C-186.08,24.258 -142.022,65.627 -87.673,66.346C-33.323,67.066 10.734,26.862 10.735,-23.451C10.735,-73.763 -33.324,-115.133 -87.673,-115.852" style="fill:rgb(236,97,152);fill-rule:nonzero;"/></g><g transform="matrix(2.79194,0.495392,-0.495392,2.79194,1297.29,745.141)"><g opacity="0.1"><g transform="matrix(-0.26937,-0.963037,-0.963037,0.26937,300.189,227.701)"><path d="M-81.557,-107.501C-133.405,-108.419 -175.435,-71.246 -175.436,-24.473C-175.436,22.299 -133.405,60.958 -81.557,61.876C-29.709,62.792 12.321,25.621 12.321,-21.151C12.321,-67.924 -29.709,-106.584 -81.557,-107.501" style="fill-rule:nonzero;"/></g></g></g><g transform="matrix(-0.274984,-2.82218,-2.82218,0.274984,2028.08,1543.71)"><path d="M-76.408,-100.713C-124.982,-101.572 -164.359,-66.747 -164.359,-22.928C-164.359,20.89 -124.982,57.109 -76.408,57.969C-27.835,58.828 11.543,24.003 11.542,-19.816C11.543,-63.634 -27.834,-99.853 -76.408,-100.713" style="fill:rgb(255,226,237);fill-rule:nonzero;"/></g><path d="M2078.03,1505.98C2078.95,1505.88 2079.89,1505.78 2080.83,1505.69C2204.49,1493.64 2317.54,1594.81 2333.32,1731.66C2349.1,1868.51 2261.65,1989.21 2137.99,2001.26C2137.01,2001.36 2136.03,2001.44 2135.07,2001.52C2254.11,1988.17 2337.63,1868.53 2322.03,1732.76C2306.43,1596.94 2197.52,1496.03 2078.03,1505.98Z" style="fill:rgb(255,148,190);fill-rule:nonzero;"/><path d="M2134.59,1953.45L2137.25,1976.45L2133.05,1976.86L2130.4,1953.86C2131.09,1953.82 2131.79,1953.75 2132.5,1953.68C2133.2,1953.61 2133.91,1953.54 2134.59,1953.45ZM2040.91,1936.67L2032.82,1957.55L2028.91,1955.58L2037,1934.68C2038.3,1935.39 2039.59,1936.03 2040.91,1936.67ZM2234.22,1935.58L2230.85,1938.26L2218.19,1919.37C2219.33,1918.52 2220.45,1917.62 2221.56,1916.7L2234.22,1935.58ZM1965.55,1870.76L1948.9,1884L1946.34,1880.18L1962.99,1866.94C1963.84,1868.23 1964.69,1869.5 1965.55,1870.76ZM2297.75,1845.94L2296.12,1850.17L2276.82,1840.43C2277.39,1839.03 2277.92,1837.62 2278.45,1836.2L2297.75,1845.94ZM1928.5,1771.09C1928.59,1771.88 1928.68,1772.63 1928.79,1773.41L1908.01,1775.44L1907.48,1770.8L1928.25,1768.77C1928.32,1769.53 1928.41,1770.31 1928.5,1771.09ZM2310.81,1731.5L2311.34,1736.14L2290.56,1738.16C2290.49,1737.38 2290.4,1736.62 2290.32,1735.84C2290.22,1735.06 2290.13,1734.28 2290.03,1733.52L2310.81,1731.5ZM1942,1666.52C1941.43,1667.93 1940.9,1669.33 1940.37,1670.75L1921.07,1661.02L1922.7,1656.79L1942,1666.52ZM2272.48,1626.78L2255.83,1640.02C2255,1638.73 2254.14,1637.46 2253.26,1636.19L2269.92,1622.95L2272.48,1626.78ZM2000.64,1587.56C1999.51,1588.44 1998.39,1589.32 1997.28,1590.26L1984.6,1571.36L1987.97,1568.68L2000.64,1587.56ZM2085.77,1530.1L2088.42,1553.09C2087.73,1553.14 2087.03,1553.21 2086.32,1553.28C2085.62,1553.35 2084.91,1553.41 2084.23,1553.5L2081.57,1530.51L2085.77,1530.1Z" style="fill:rgb(228,60,127);fill-rule:nonzero;"/><g transform="matrix(-0.918126,2.68279,2.68279,0.918126,2234.95,1726.57)"><path d="M-49.749,-35.147L29.579,-35.147L28.456,-42.873L-50.053,-37.246L-49.749,-35.147Z" style="fill:rgb(91,120,199);fill-rule:nonzero;"/></g><g transform="matrix(1.74601,2.23423,2.23423,-1.74601,2082.2,1602.37)"><path d="M-10.249,-21.522L53.315,-21.522L53.433,-29.202L-10.216,-23.608L-10.249,-21.522Z" style="fill:rgb(45,69,132);fill-rule:nonzero;"/></g><g transform="matrix(-0.274984,-2.82218,-2.82218,0.274984,2106.77,1746.68)"><path d="M-2.474,-3.261C-4.047,-3.288 -5.322,-2.161 -5.322,-0.743C-5.322,0.677 -4.047,1.849 -2.474,1.877C-0.901,1.904 0.373,0.777 0.374,-0.642C0.374,-2.061 -0.901,-3.234 -2.474,-3.261" style="fill:rgb(200,200,200);fill-rule:nonzero;"/></g><g transform="matrix(-2.4312,-1.45931,-1.45931,2.4312,2102.87,1758.59)"><path d="M-1.045,-5.66C-2.652,-5.491 -3.954,-4.045 -3.955,-2.429C-3.955,-0.812 -2.652,0.361 -1.045,0.193C0.563,0.024 1.865,-1.422 1.865,-3.039C1.865,-4.654 0.563,-5.828 -1.045,-5.66" style="fill:rgb(238,173,199);fill-rule:nonzero;"/></g><g transform="matrix(2.24257,1.73529,1.73529,-2.24257,2142.66,1726.46)"><path d="M-3.594,-13.467L55.098,-13.467L55.199,-14.319L-3.298,-15.953L-3.594,-13.467Z" style="fill:rgb(238,173,199);fill-rule:nonzero;"/></g><g transform="matrix(2.79194,0.495392,-0.495392,2.79194,1887.81,1523.33)"><path d="M0,10.182L-1.911,12.72C-3.011,14.181 -5.087,14.474 -6.548,13.374L-19.614,3.537L-13.72,-4.292L-0.654,5.545C0.807,6.645 1.1,8.721 0,10.182" style="fill:rgb(236,97,152);fill-rule:nonzero;"/></g><g transform="matrix(2.79194,0.495392,-0.495392,2.79194,1793.7,1313.86)"><path d="M0,112.142C0,112.142 -33.521,77.952 -3.656,38.976C26.208,0 67.039,26.605 67.039,26.605C67.039,26.605 43.518,77.133 0,112.142" style="fill:rgb(236,97,152);fill-rule:nonzero;"/></g><g transform="matrix(2.79194,0.495392,-0.495392,2.79194,1297.29,745.141)"><g opacity="0.3"><g transform="matrix(0.924173,-0.381974,-0.381974,-0.924173,230.05,257.249)"><path d="M-10.232,-4.856C-13.684,-6.248 -17.225,-7.576 -20.825,-8.804C-32.299,32.575 -11.028,53.194 -10.232,53.949C-10.217,53.967 -10.205,53.975 -10.205,53.975C-19.659,33.482 -13.537,6.47 -10.232,-4.856" style="fill:url(#_Linear7);fill-rule:nonzero;"/></g><g transform="matrix(-0.582385,-0.812913,-0.812913,0.582385,227.073,210.286)"><path d="M-40.631,26.492C-40.929,27.998 -41.213,29.507 -41.492,31.049C-41.208,31.063 -40.919,31.085 -40.631,31.107C-7.27,33.299 16.336,18.92 16.336,18.92C-9.122,29.224 -30.996,27.884 -40.631,26.492" style="fill:url(#_Linear8);fill-rule:nonzero;"/></g></g></g><g transform="matrix(2.79194,0.495392,-0.495392,2.79194,1297.29,745.141)"><g opacity="0.1"><g transform="matrix(-0.291475,-0.956578,-0.956578,0.291475,223.61,197.521)"><path d="M-10.981,-49.812C-10.981,-49.812 -34.09,-29.063 -54.458,3.014C-40.18,-16.089 -20.373,-33.213 -10.981,-32.929C-6.374,-32.792 3.049,-29.737 8.42,-5.674C10.51,-31.799 -10.981,-49.812 -10.981,-49.812" style="fill-rule:nonzero;"/></g></g></g><g transform="matrix(2.79194,0.495392,-0.495392,2.79194,1786.77,1412.74)"><path d="M0,9.557L-0.396,10.083C-1.914,12.099 -4.779,12.504 -6.796,10.985L-12.887,6.4C-14.904,4.881 -15.308,2.016 -13.79,-0.001L-13.394,-0.526C-11.876,-2.543 -9.01,-2.947 -6.994,-1.429L-0.902,3.157C1.114,4.675 1.518,7.54 0,9.557" style="fill:rgb(236,97,152);fill-rule:nonzero;"/></g><path d="M2332.96,1728.66C2333.09,1729.66 2333.21,1730.66 2333.32,1731.66C2349.1,1868.51 2261.65,1989.21 2137.99,2001.26C2111.92,2003.8 2086.32,2001.31 2062,1994.51L2332.96,1728.66ZM2275.35,1592.1C2281.37,1599.54 2287.02,1607.36 2292.26,1615.53L1958.35,1931.67C1948.06,1921.02 1938.59,1909.36 1930.11,1896.82L2275.35,1592.1ZM2180.67,1520.64C2201.5,1529.19 2221.1,1540.96 2238.89,1555.46L1907.14,1855.24C1896.25,1830.6 1888.77,1803.72 1885.49,1775.29C1885.27,1773.32 1885.06,1771.35 1884.88,1769.41L2180.67,1520.64Z" style="fill:url(#_Linear9);fill-rule:nonzero;"/><g transform="matrix(0.0738762,-0.399625,0.413344,0.0764123,1605.8,1561.96)"><ellipse cx="499.995" cy="561.616" rx="47.8" ry="115.781" style="fill:url(#_Linear10);"/></g><g transform="matrix(-0.00635232,-0.116607,0.197196,-0.0107425,1730.36,1464.07)"><ellipse cx="499.995" cy="561.616" rx="47.8" ry="115.781" style="fill:url(#_Linear11);"/></g></g><g transform="matrix(2.26731,0,0,2.26731,-239.584,-2759.62)"><g transform="matrix(0.831345,0,0,0.831345,-58.333,1249.15)"><path d="M199.087,1267.67C199.087,1267.67 168.28,1287.44 138.32,1306.67C128.017,1313.28 122.427,1325.22 123.949,1337.37C125.47,1349.52 133.832,1359.71 145.447,1363.57C309.454,1418.16 745.882,1563.42 881.354,1608.51C906.793,1616.98 934.778,1612.24 956.011,1595.87C998.448,1563.15 1692.33,1004.57 1692.33,1004.57C1692.33,1004.57 1795.5,1053.36 1859.64,1083.65C1885.98,1096.09 1917.39,1090.62 1941.04,1073.61C1962.16,1058.41 1988.51,1039.45 2010.3,1023.77C2018.93,1017.56 2023.55,1007.19 2022.39,996.622C2021.23,986.055 2014.48,976.929 2004.72,972.732C1955.48,951.576 1885.97,921.707 1885.97,921.707L1896.65,770.345C1896.65,770.345 2084.37,850.77 2166.56,885.985C2189.93,895.995 2216.86,892.703 2237.13,877.36C2275.59,848.242 2334.19,803.882 2334.19,803.882L2347.36,698.269L2215.86,592.928L1959.08,651.039L199.087,1267.67Z" style="fill-opacity:0.19;"/></g><path d="M1845.03,1675.91C1845.03,1675.91 1862.24,1677.65 1863.24,1691.63C1864.23,1705.61 1863.77,1848.72 1863.77,1848.72C1863.77,1848.72 1762.81,1808.67 1762.66,1804.34C1762.52,1800.01 1769.38,1695.19 1769.38,1695.19L1819.33,1671.68L1845.03,1675.91Z" style="fill:rgb(118,181,230);"/><path d="M1346.06,1682.1C1346.06,1682.1 1340.46,1605.93 1341.92,1582.9C1343.39,1559.88 1356.44,1532.69 1403.75,1541.2C1451.06,1549.72 1845.03,1675.91 1845.03,1675.91C1845.03,1675.91 1793.42,1685.88 1791.78,1761.79C1790.13,1837.7 1790.29,1911.73 1772.81,1929.04C1755.32,1946.36 1743.25,1952.49 1715.59,1930.68C1687.94,1908.87 1577.77,1833.25 1578.1,1828.27C1578.43,1823.3 1346.06,1682.1 1346.06,1682.1Z" style="fill:rgb(230,243,255);"/><path d="M1346.06,1682.1C1346.06,1682.1 1340.46,1605.93 1341.92,1582.9C1343.39,1559.88 1356.44,1532.69 1403.75,1541.2C1451.06,1549.72 1845.03,1675.91 1845.03,1675.91C1845.03,1675.91 1793.42,1685.88 1791.78,1761.79C1790.13,1837.7 1790.29,1911.73 1772.81,1929.04C1755.32,1946.36 1743.25,1952.49 1715.59,1930.68C1687.94,1908.87 1577.77,1833.25 1578.1,1828.27C1578.43,1823.3 1346.06,1682.1 1346.06,1682.1Z" style="fill:url(#_Linear12);"/><path d="M1665.69,1796.27C1665.69,1796.27 1669.89,1795.56 1675.17,1796.2C1680.46,1796.84 1699.13,1805.43 1699.41,1825.96C1699.68,1846.49 1693.08,1907.72 1706.52,1921.6C1719.96,1935.48 1741.28,1944.95 1741.28,1944.95L1600.25,1885.55L1622.15,1805.98L1665.69,1796.27Z" style="fill:rgb(118,181,230);"/><path d="M1533.69,2087.64C1533.69,2087.64 1552.14,2094.2 1568.77,2089.51C1585.4,2084.82 1603.74,2060.12 1604.3,1999.15C1604.85,1938.18 1623.41,1804.41 1667.47,1795.95L1451.44,1732.4L1420.56,1867.44L1454.58,2025.83L1515.7,2077.48L1533.69,2087.64Z" style="fill:rgb(230,243,255);"/><path d="M1533.69,2087.64C1533.69,2087.64 1552.14,2094.2 1568.77,2089.51C1585.4,2084.82 1603.74,2060.12 1604.3,1999.15C1604.85,1938.18 1623.41,1804.41 1667.47,1795.95L1451.44,1732.4L1420.56,1867.44L1454.58,2025.83L1515.7,2077.48L1533.69,2087.64Z" style="fill:url(#_Linear13);"/><path d="M1425.22,1697.76C1425.22,1697.76 1464.87,1697.66 1473.08,1747.87C1481.3,1798.08 1477.61,1979.89 1484.36,2012.29C1491.12,2044.68 1499.92,2064.65 1533.69,2087.64L1295.73,1966.61L1253.88,1727L1425.22,1697.76Z" style="fill:rgb(118,181,230);"/><g transform="matrix(0.831345,0,0,0.831345,-58.333,1249.15)"><g><g><path d="M1688.12,875.483L199.087,1267.67C199.087,1267.67 168.28,1287.44 138.32,1306.67C135.805,1308.28 133.571,1310.21 131.652,1312.39C131.652,1312.39 674.575,1497.64 860.252,1561C898.522,1574.06 940.805,1566.77 972.498,1541.66C1141.36,1407.86 1640.71,995.872 1640.71,995.872L1689.75,884.483L1688.12,875.483Z" style="fill:url(#_Linear14);"/><path d="M1759.05,618.128C1759.05,618.128 1776.83,686.834 1779.3,704.297C1780.93,715.885 1769.93,771.578 1765.11,782.244C1758.13,797.702 1736.62,792.356 1721.06,818.059C1692.99,864.431 1666.58,946.968 1654.1,974.596C1649.36,985.09 1642.13,994.273 1633.05,1001.36C1550.57,1065.69 1121.83,1400.08 971.023,1517.7C938.257,1543.26 894.784,1550.5 855.504,1536.94C702.362,1484.09 313.212,1356.2 185.336,1312.06C159.926,1303.29 138.105,1273.61 134.699,1246.94C132.326,1228.37 131.458,1210.83 131.458,1210.83L1759.05,618.128Z" style="fill:rgb(55,140,127);"/><g transform="matrix(0.530155,0,0,0.530155,196.388,-38.4316)"><path d="M2982.5,1442.34C2976.68,1481.67 2965.16,1534.35 2958.99,1547.99C2945.82,1577.15 2905.25,1567.06 2875.9,1615.55C2822.96,1703.01 2773.14,1858.7 2749.59,1910.81C2740.65,1930.61 2727.02,1947.93 2709.9,1961.29L2060.38,2467.87C1981.38,2474.19 1912.18,2470.12 1891.38,2442.34C1888.91,2439.05 1921.71,2422.07 1925.15,2420.08C1972.25,2392.91 2015.5,2356.76 2060.34,2326C2170.64,2250.33 2275.28,2164.84 2387.93,2092.71C2471.46,2039.23 2566.36,2005.76 2649.72,1954.97C2864.45,1824.14 2661.73,1525.27 2982.5,1442.34Z" style="fill:url(#_Linear15);"/></g><g transform="matrix(0.995652,0,0,0.995652,471.529,-649.969)"><path d="M431.326,1088.74C431.326,1088.74 477.195,1061.39 500.723,1047.36C509.41,1042.18 519.806,1040.68 529.603,1043.2C620.685,1066.6 1127.49,1213.32 1275.51,1256.23C1284.19,1258.74 1290.91,1265.62 1293.23,1274.35C1295.54,1283.08 1293.11,1292.39 1286.82,1298.87C1263.42,1322.94 1233.7,1352.02 1228.4,1350.13C1219.43,1346.95 431.326,1088.74 431.326,1088.74Z" style="fill:rgb(152,212,203);"/></g><g transform="matrix(1.20287,0,0,1.20287,70.1671,-1502.57)"><path d="M1345.34,1735.84C1358.91,1739.78 1371.09,1743.3 1381.54,1746.33L1354.27,1764.76L1339.83,1751.17L1345.34,1735.84Z" style="fill-opacity:0.34;"/></g><g transform="matrix(1.04368,0.341631,-0.811344,0.635318,873.386,-87.2912)"><g transform="matrix(0.675691,-0.363341,0.862903,1.11,-504.237,423.395)"><path d="M795.726,673.702C793.373,677.24 790.468,680.379 787.123,682.998C733.591,724.916 269.989,1087.94 140.085,1189.66C133.442,1194.86 130.205,1203.3 131.666,1211.61C133.126,1219.92 139.046,1226.75 147.065,1229.37C287.139,1275.22 747.644,1425.96 872.265,1466.75C891.847,1473.16 913.336,1469.38 929.558,1456.68C1054.69,1358.7 1589.65,939.801 1589.65,939.801L1589.8,939.848C1589.8,939.848 1670.13,742.925 1698.68,672.851C1700.16,669.222 1698.04,656.742 1692.47,647.665C1687.07,638.868 1678.29,633.431 1674.68,632.253C1547.83,590.886 1121.13,477.497 992.704,435.615C973.933,429.493 953.384,436.632 942.451,453.072C903.397,511.796 814.565,645.373 795.726,673.702Z" style="fill:rgb(126,204,193);"/></g><g transform="matrix(0.675691,-0.363341,0.862903,1.11,-514.816,414.231)"><path d="M795.726,673.702C793.373,677.24 790.468,680.379 787.123,682.998C733.591,724.916 269.989,1087.94 140.085,1189.66C133.442,1194.86 130.205,1203.3 131.666,1211.61C133.126,1219.92 139.046,1226.75 147.065,1229.37C287.139,1275.22 747.644,1425.96 872.265,1466.75C891.847,1473.16 913.336,1469.38 929.558,1456.68C1054.69,1358.7 1589.65,939.801 1589.65,939.801L1589.8,939.848C1589.8,939.848 1654.98,781.065 1687.77,703.507C1690.78,696.399 1701.91,674.288 1696.9,660.418C1689.45,639.756 1663.11,636.306 1655.78,633.913C1528.93,592.546 1075.72,471.522 947.3,429.64C928.53,423.518 906.48,423.742 895.547,440.182C856.494,498.907 814.565,645.373 795.726,673.702Z" style="fill:rgb(68,174,158);"/></g><g transform="matrix(0.358221,-0.192627,0.457473,0.588475,-415.281,300.216)"><path d="M1341.07,883.202C1332.34,887.504 1324.7,893.883 1318.78,902.78C1245.12,1013.55 1166.03,1289.82 1130.5,1343.25C1126.06,1349.93 1120.58,1355.85 1114.27,1360.79L-51.221,2273.42L-78.142,2396.25L-60.624,2401.99C14.786,2344.5 77.455,2262.49 147.976,2200.48C384.181,1992.79 840.315,1568.57 1161.87,1523.7C1270.7,1508.51 1380.67,1551.03 1485.07,1578.5C1626.54,1615.74 1767.39,1641.19 1906.35,1689.82C1958.66,1708.13 2154.81,1765.4 2161.55,1756.28C2164.38,1752.44 2142.88,1717.25 2141.14,1716.14C2078.56,1676.07 2023.66,1665.62 1951.8,1644.37C1866.08,1619.03 1781.71,1588.37 1696.31,1561.74C1605.88,1533.56 1214.71,1464.23 1162.79,1406.02C1091.21,1325.75 1406.11,937.985 1348.29,888.746C1345.96,886.76 1343.55,884.913 1341.07,883.202Z" style="fill:url(#_Linear16);"/></g><g transform="matrix(0.484491,0.00332467,0.320737,0.61919,-411.158,-113.629)"><ellipse cx="2107.51" cy="1648.74" rx="229.691" ry="39.008" style="fill:url(#_Linear17);"/></g><g transform="matrix(0.658681,-0.354194,0.830313,1.06808,-463.336,469.223)"><path d="M957.979,1363.72C962.667,1360.04 961.64,1355.48 955.685,1353.53L874.861,1327.08C868.907,1325.13 860.266,1326.53 855.578,1330.2L838.589,1343.5C833.9,1347.17 834.928,1351.73 840.883,1353.68L921.707,1380.14C927.661,1382.09 936.301,1380.69 940.99,1377.02L957.979,1363.72ZM821.97,1319.19C826.658,1315.52 825.63,1310.96 819.676,1309.01L738.852,1282.56C732.898,1280.61 724.257,1282.01 719.569,1285.68L702.579,1298.98C697.891,1302.65 698.919,1307.21 704.873,1309.16L785.697,1335.62C791.652,1337.57 800.292,1336.17 804.98,1332.5L821.97,1319.19ZM1074.19,1278.14C1082.65,1271.51 1080.8,1263.28 1070.06,1259.76L924.226,1212.03C913.482,1208.51 897.892,1211.03 889.433,1217.66L858.779,1241.66C850.32,1248.29 852.174,1256.52 862.918,1260.03L1008.75,1307.77C1019.49,1311.29 1035.08,1308.76 1043.54,1302.14L1074.19,1278.14ZM828.793,1197.81C837.252,1191.18 835.398,1182.95 824.654,1179.43L678.823,1131.7C668.08,1128.18 652.49,1130.7 644.031,1137.33L613.377,1161.33C604.917,1167.96 606.772,1176.19 617.516,1179.71L763.346,1227.44C774.09,1230.96 789.68,1228.43 798.139,1221.81L828.793,1197.81ZM1183.85,1192.27C1192.31,1185.65 1190.46,1177.41 1179.71,1173.9L1033.88,1126.16C1023.14,1122.64 1007.55,1125.17 999.09,1131.79L968.436,1155.79C959.977,1162.42 961.831,1170.65 972.575,1174.17L1118.41,1221.9C1129.15,1225.42 1144.74,1222.9 1153.2,1216.27L1183.85,1192.27ZM583.391,1117.48C591.85,1110.86 589.995,1102.62 579.252,1099.11L433.421,1051.37C422.678,1047.85 407.087,1050.38 398.628,1057L367.974,1081C359.515,1087.63 361.37,1095.86 372.113,1099.38L517.944,1147.11C528.688,1150.63 544.278,1148.11 552.737,1141.48L583.391,1117.48ZM938.45,1111.94C946.909,1105.32 945.055,1097.09 934.311,1093.57L788.481,1045.83C777.737,1042.32 762.147,1044.84 753.688,1051.46L723.034,1075.47C714.575,1082.09 716.429,1090.32 727.173,1093.84L873.003,1141.58C883.747,1145.09 899.337,1142.57 907.796,1135.94L938.45,1111.94ZM1293.51,1106.4C1301.97,1099.78 1300.11,1091.55 1289.37,1088.03L1143.54,1040.3C1132.8,1036.78 1117.21,1039.3 1108.75,1045.92L1078.09,1069.93C1069.63,1076.55 1071.49,1084.79 1082.23,1088.3L1228.06,1136.04C1238.81,1139.55 1254.4,1137.03 1262.86,1130.41L1293.51,1106.4ZM693.048,1031.61C701.507,1024.99 699.652,1016.76 688.909,1013.24L543.078,965.505C532.335,961.988 516.744,964.51 508.285,971.134L477.631,995.138C469.172,1001.76 471.027,1009.99 481.77,1013.51L627.601,1061.25C638.345,1064.76 653.935,1062.24 662.394,1055.62L693.048,1031.61ZM1048.11,1026.08C1056.57,1019.45 1054.71,1011.22 1043.97,1007.7L898.138,959.967C887.394,956.45 871.804,958.972 863.345,965.596L832.691,989.6C824.232,996.224 826.086,1004.46 836.83,1007.97L982.66,1055.71C993.404,1059.22 1008.99,1056.7 1017.45,1050.08L1048.11,1026.08ZM1388.35,1029.09C1392.43,1025.9 1391.87,1022.03 1387.1,1020.47L1279.35,985.202C1274.58,983.639 1267.39,984.965 1263.31,988.161L1248.52,999.742C1244.43,1002.94 1245,1006.8 1249.77,1008.36L1357.52,1043.63C1362.29,1045.2 1369.48,1043.87 1373.56,1040.67L1388.35,1029.09ZM1207.38,969.856C1211.46,966.66 1210.9,962.797 1206.13,961.235L1098.38,925.965C1093.61,924.403 1086.42,925.729 1082.34,928.925L1067.55,940.506C1063.47,943.702 1064.03,947.565 1068.8,949.128L1176.55,984.397C1181.32,985.959 1188.51,984.633 1192.59,981.437L1207.38,969.856ZM802.705,945.747C811.164,939.123 809.309,930.89 798.566,927.373L652.735,879.638C641.992,876.122 626.401,878.644 617.942,885.268L587.288,909.271C578.829,915.895 580.684,924.128 591.428,927.645L737.258,975.38C748.002,978.897 763.592,976.374 772.051,969.75L802.705,945.747ZM1026.42,910.62C1030.5,907.424 1029.94,903.561 1025.16,901.998L917.416,866.729C912.642,865.166 905.453,866.492 901.372,869.688L886.582,881.269C882.501,884.465 883.063,888.328 887.836,889.891L995.583,925.16C1000.36,926.723 1007.55,925.397 1011.63,922.201L1026.42,910.62ZM845.45,851.383C849.531,848.187 848.969,844.324 844.195,842.761L736.449,807.492C731.675,805.93 724.486,807.256 720.405,810.452L705.615,822.033C701.533,825.229 702.096,829.092 706.869,830.654L814.616,865.923C819.39,867.486 826.579,866.16 830.66,862.964L845.45,851.383Z" style="fill-opacity:0.16;"/></g><g transform="matrix(0.650172,-0.349619,0.830313,1.06808,-468.301,448.823)"><path d="M957.979,1363.72C962.667,1360.04 964.827,1340.02 958.873,1338.08L874.861,1327.08C868.907,1325.13 860.266,1326.53 855.578,1330.2L838.159,1329.21C833.471,1332.88 834.928,1351.73 840.883,1353.68L921.707,1380.14C927.661,1382.09 936.301,1380.69 940.99,1377.02L957.979,1363.72ZM821.97,1319.19C826.658,1315.52 828.805,1296.07 822.851,1294.12L738.852,1282.56C732.898,1280.61 724.257,1282.01 719.569,1285.68L701.772,1284.63C697.084,1288.3 698.919,1307.21 704.873,1309.16L785.697,1335.62C791.652,1337.57 800.292,1336.17 804.98,1332.5L821.97,1319.19ZM1074.19,1278.14C1082.65,1271.51 1084.52,1249.22 1073.78,1245.7L924.226,1212.03C913.482,1208.51 897.892,1211.03 889.433,1217.66L857.93,1228.94C849.471,1235.57 852.174,1256.52 862.918,1260.03L1008.75,1307.77C1019.49,1311.29 1035.08,1308.76 1043.54,1302.14L1074.19,1278.14ZM828.793,1197.81C837.252,1191.18 835.398,1182.95 824.654,1179.43L678.823,1131.7C668.08,1128.18 652.49,1130.7 644.031,1137.33L610.919,1150.08C602.46,1156.7 606.772,1176.19 617.516,1179.71L763.346,1227.44C774.09,1230.96 789.68,1228.43 798.139,1221.81L828.793,1197.81ZM1183.85,1192.27C1192.31,1185.65 1194.31,1163.39 1183.56,1159.88L1033.88,1126.16C1023.14,1122.64 1007.55,1125.17 999.09,1131.79L968.094,1141.08C959.634,1147.7 961.831,1170.65 972.575,1174.17L1118.41,1221.9C1129.15,1225.42 1144.74,1222.9 1153.2,1216.27L1183.85,1192.27ZM583.391,1117.48C591.85,1110.86 593.665,1089.13 582.921,1085.62L433.421,1051.37C422.678,1047.85 407.087,1050.38 398.628,1057L366.216,1067.93C357.757,1074.56 361.37,1095.86 372.113,1099.38L517.944,1147.11C528.688,1150.63 544.278,1148.11 552.737,1141.48L583.391,1117.48ZM938.45,1111.94C946.909,1105.32 945.055,1097.09 934.311,1093.57L788.481,1045.83C777.737,1042.32 762.147,1044.84 753.688,1051.46L722.731,1061.86C714.272,1068.49 716.429,1090.32 727.173,1093.84L873.003,1141.58C883.747,1145.09 899.337,1142.57 907.796,1135.94L938.45,1111.94ZM1293.51,1106.4C1301.97,1099.78 1303.28,1074.89 1292.54,1071.37L1143.54,1040.3C1132.8,1036.78 1117.21,1039.3 1108.75,1045.92L1076.59,1056.94C1068.13,1063.56 1071.49,1084.79 1082.23,1088.3L1228.06,1136.04C1238.81,1139.55 1254.4,1137.03 1262.86,1130.41L1293.51,1106.4ZM693.048,1031.61C701.507,1024.99 703.321,1002.7 692.578,999.179L543.078,965.505C532.335,961.988 516.744,964.51 508.285,971.134L475.324,982.172C466.865,988.796 471.027,1009.99 481.77,1013.51L627.601,1061.25C638.345,1064.76 653.935,1062.24 662.394,1055.62L693.048,1031.61ZM1048.11,1026.08C1056.57,1019.45 1058.98,997.556 1048.23,994.039L898.138,959.967C887.394,956.45 871.804,958.972 863.345,965.596L832.195,975.785C823.736,982.409 826.086,1004.46 836.83,1007.97L982.66,1055.71C993.404,1059.22 1008.99,1056.7 1017.45,1050.08L1048.11,1026.08ZM1388.35,1029.09C1392.43,1025.9 1394.37,1006.69 1389.6,1005.13L1279.35,985.202C1274.58,983.639 1267.39,984.965 1263.31,988.161L1248.26,984.763C1244.18,987.959 1245,1006.8 1249.77,1008.36L1357.52,1043.63C1362.29,1045.2 1369.48,1043.87 1373.56,1040.67L1388.35,1029.09ZM1207.38,969.856C1211.46,966.66 1213.52,947.92 1208.75,946.358L1098.38,925.965C1093.61,924.403 1086.42,925.729 1082.34,928.925L1066.99,926.368C1062.91,929.564 1064.03,947.565 1068.8,949.128L1176.55,984.397C1181.32,985.959 1188.51,984.633 1192.59,981.437L1207.38,969.856ZM802.705,945.747C811.164,939.123 813.191,916.003 802.447,912.486L652.735,879.638C641.992,876.122 626.401,878.644 617.942,885.268L585.431,896.044C576.972,902.668 580.684,924.128 591.428,927.645L737.258,975.38C748.002,978.897 763.592,976.374 772.051,969.75L802.705,945.747ZM1026.42,910.62C1030.5,907.424 1032.44,888.339 1027.66,886.776L917.416,866.729C912.642,865.166 905.453,866.492 901.372,869.688L885.663,867.076C881.582,870.272 883.063,888.328 887.836,889.891L995.583,925.16C1000.36,926.723 1007.55,925.397 1011.63,922.201L1026.42,910.62ZM845.45,851.383C849.531,848.187 851.617,828.802 846.843,827.239L736.449,807.492C731.675,805.93 724.486,807.256 720.405,810.452L705.007,807.308C700.926,810.504 702.096,829.092 706.869,830.654L814.616,865.923C819.39,867.486 826.579,866.16 830.66,862.964L845.45,851.383Z" style="fill:rgb(51,123,112);"/></g><g transform="matrix(0.650172,-0.349619,0.830313,1.06808,-481.842,430.517)"><path d="M957.979,1363.72C962.667,1360.04 961.64,1355.48 955.685,1353.53L874.861,1327.08C868.907,1325.13 860.266,1326.53 855.578,1330.2L838.589,1343.5C833.9,1347.17 834.928,1351.73 840.883,1353.68L921.707,1380.14C927.661,1382.09 936.301,1380.69 940.99,1377.02L957.979,1363.72ZM821.97,1319.19C826.658,1315.52 825.63,1310.96 819.676,1309.01L738.852,1282.56C732.898,1280.61 724.257,1282.01 719.569,1285.68L702.579,1298.98C697.891,1302.65 698.919,1307.21 704.873,1309.16L785.697,1335.62C791.652,1337.57 800.292,1336.17 804.98,1332.5L821.97,1319.19ZM1074.19,1278.14C1082.65,1271.51 1080.8,1263.28 1070.06,1259.76L924.226,1212.03C913.482,1208.51 897.892,1211.03 889.433,1217.66L858.779,1241.66C850.32,1248.29 852.174,1256.52 862.918,1260.03L1008.75,1307.77C1019.49,1311.29 1035.08,1308.76 1043.54,1302.14L1074.19,1278.14ZM828.793,1197.81C837.252,1191.18 835.398,1182.95 824.654,1179.43L678.823,1131.7C668.08,1128.18 652.49,1130.7 644.031,1137.33L613.377,1161.33C604.917,1167.96 606.772,1176.19 617.516,1179.71L763.346,1227.44C774.09,1230.96 789.68,1228.43 798.139,1221.81L828.793,1197.81ZM1183.85,1192.27C1192.31,1185.65 1190.46,1177.41 1179.71,1173.9L1033.88,1126.16C1023.14,1122.64 1007.55,1125.17 999.09,1131.79L968.436,1155.79C959.977,1162.42 961.831,1170.65 972.575,1174.17L1118.41,1221.9C1129.15,1225.42 1144.74,1222.9 1153.2,1216.27L1183.85,1192.27ZM583.391,1117.48C591.85,1110.86 589.995,1102.62 579.252,1099.11L433.421,1051.37C422.678,1047.85 407.087,1050.38 398.628,1057L367.974,1081C359.515,1087.63 361.37,1095.86 372.113,1099.38L517.944,1147.11C528.688,1150.63 544.278,1148.11 552.737,1141.48L583.391,1117.48ZM938.45,1111.94C946.909,1105.32 945.055,1097.09 934.311,1093.57L788.481,1045.83C777.737,1042.32 762.147,1044.84 753.688,1051.46L723.034,1075.47C714.575,1082.09 716.429,1090.32 727.173,1093.84L873.003,1141.58C883.747,1145.09 899.337,1142.57 907.796,1135.94L938.45,1111.94ZM1293.51,1106.4C1301.97,1099.78 1300.11,1091.55 1289.37,1088.03L1143.54,1040.3C1132.8,1036.78 1117.21,1039.3 1108.75,1045.92L1078.09,1069.93C1069.63,1076.55 1071.49,1084.79 1082.23,1088.3L1228.06,1136.04C1238.81,1139.55 1254.4,1137.03 1262.86,1130.41L1293.51,1106.4ZM693.048,1031.61C701.507,1024.99 699.652,1016.76 688.909,1013.24L543.078,965.505C532.335,961.988 516.744,964.51 508.285,971.134L477.631,995.138C469.172,1001.76 471.027,1009.99 481.77,1013.51L627.601,1061.25C638.345,1064.76 653.935,1062.24 662.394,1055.62L693.048,1031.61ZM1048.11,1026.08C1056.57,1019.45 1054.71,1011.22 1043.97,1007.7L898.138,959.967C887.394,956.45 871.804,958.972 863.345,965.596L832.691,989.6C824.232,996.224 826.086,1004.46 836.83,1007.97L982.66,1055.71C993.404,1059.22 1008.99,1056.7 1017.45,1050.08L1048.11,1026.08ZM1388.35,1029.09C1392.43,1025.9 1391.87,1022.03 1387.1,1020.47L1279.35,985.202C1274.58,983.639 1267.39,984.965 1263.31,988.161L1248.52,999.742C1244.43,1002.94 1245,1006.8 1249.77,1008.36L1357.52,1043.63C1362.29,1045.2 1369.48,1043.87 1373.56,1040.67L1388.35,1029.09ZM1207.38,969.856C1211.46,966.66 1210.9,962.797 1206.13,961.235L1098.38,925.965C1093.61,924.403 1086.42,925.729 1082.34,928.925L1067.55,940.506C1063.47,943.702 1064.03,947.565 1068.8,949.128L1176.55,984.397C1181.32,985.959 1188.51,984.633 1192.59,981.437L1207.38,969.856ZM802.705,945.747C811.164,939.123 809.309,930.89 798.566,927.373L652.735,879.638C641.992,876.122 626.401,878.644 617.942,885.268L587.288,909.271C578.829,915.895 580.684,924.128 591.428,927.645L737.258,975.38C748.002,978.897 763.592,976.374 772.051,969.75L802.705,945.747ZM1026.42,910.62C1030.5,907.424 1029.94,903.561 1025.16,901.998L917.416,866.729C912.642,865.166 905.453,866.492 901.372,869.688L886.582,881.269C882.501,884.465 883.063,888.328 887.836,889.891L995.583,925.16C1000.36,926.723 1007.55,925.397 1011.63,922.201L1026.42,910.62ZM845.45,851.383C849.531,848.187 848.969,844.324 844.195,842.761L736.449,807.492C731.675,805.93 724.486,807.256 720.405,810.452L705.615,822.033C701.533,825.229 702.096,829.092 706.869,830.654L814.616,865.923C819.39,867.486 826.579,866.16 830.66,862.964L845.45,851.383Z" style="fill:rgb(152,212,203);"/></g></g><g transform="matrix(0.998266,-0.0588708,0.172242,1.20646,-148.663,-67.5771)"><g transform="matrix(1.0013,0.326549,-0.417131,0.627239,366.339,16.9798)"><path d="M1475.96,402.509C1475.96,379.866 1465.14,361.483 1451.82,361.483L764.253,361.483C750.929,361.483 740.111,379.866 740.111,402.509L740.111,595.524C740.111,618.167 750.929,636.551 764.253,636.551L1451.82,636.551C1465.14,636.551 1475.96,618.167 1475.96,595.524L1475.96,402.509Z" style="fill:rgb(152,212,203);"/></g><g transform="matrix(1.0013,0.326549,-0.417131,0.627239,366.339,16.9798)"><path d="M1475.96,402.509C1475.96,379.866 1465.14,361.483 1451.82,361.483L764.253,361.483C750.929,361.483 740.111,379.866 740.111,402.509L740.111,595.524C740.111,618.167 750.929,636.551 764.253,636.551L1451.82,636.551C1465.14,636.551 1475.96,618.167 1475.96,595.524L1475.96,402.509Z" style="fill:rgb(192,229,223);"/></g><g transform="matrix(1.76269,0.565468,-0.837976,1.49835,72.6603,-1280.32)"><path d="M923.116,913.468C924.091,913.345 924.801,913.123 925.245,912.802C926.023,912.234 926.412,911.253 926.412,909.858C926.412,908.797 926.048,907.957 925.32,907.34C924.887,906.982 924.153,906.612 923.116,906.229L923.116,913.468ZM921.357,894.12C920.283,894.145 919.487,894.432 918.969,894.981C918.45,895.531 918.191,896.28 918.191,897.231C918.191,898.268 918.58,899.089 919.358,899.693C919.79,900.027 920.456,900.335 921.357,900.619L921.357,894.12ZM923.153,921.319L921.357,921.319L921.357,917.634C918.926,917.363 917.111,916.832 915.914,916.042C913.803,914.623 912.766,912.203 912.803,908.784L917.802,908.784C917.975,910.339 918.216,911.382 918.525,911.913C919.006,912.74 919.95,913.277 921.357,913.524L921.357,905.618L919.858,905.174C917.5,904.483 915.837,903.52 914.868,902.285C913.899,901.051 913.414,899.564 913.414,897.823C913.414,896.675 913.603,895.632 913.979,894.694C914.356,893.756 914.883,892.948 915.562,892.269C916.439,891.392 917.414,890.788 918.487,890.454C919.142,890.245 920.098,890.09 921.357,889.992L921.357,887.529L923.116,887.529L923.116,890.029C925.128,890.189 926.708,890.683 927.856,891.51C929.942,892.83 931.022,894.972 931.096,897.934L926.227,897.934C926.128,896.836 925.943,896.034 925.671,895.527C925.202,894.651 924.351,894.17 923.116,894.083L923.116,901.138C926.054,902.15 928.029,903.045 929.041,903.822C930.707,905.118 931.541,906.945 931.541,909.303C931.541,912.413 930.399,914.672 928.115,916.079C926.72,916.943 925.066,917.449 923.153,917.597L923.153,921.319Z" style="fill:rgb(50,123,112);fill-rule:nonzero;"/><path d="M938.984,908.692C938.984,909.765 939.156,910.654 939.502,911.358C940.144,912.654 941.31,913.302 943.001,913.302C944.038,913.302 944.942,912.947 945.714,912.237C946.485,911.527 946.871,910.506 946.871,909.173C946.871,907.408 946.155,906.229 944.723,905.637C943.909,905.303 942.625,905.137 940.872,905.137L940.872,901.36C942.588,901.335 943.785,901.168 944.464,900.86C945.637,900.341 946.223,899.292 946.223,897.712C946.223,896.688 945.924,895.855 945.325,895.213C944.726,894.571 943.884,894.25 942.798,894.25C941.551,894.25 940.634,894.645 940.048,895.435C939.462,896.225 939.181,897.28 939.206,898.601L934.281,898.601C934.33,897.268 934.558,896.003 934.966,894.805C935.398,893.756 936.077,892.787 937.002,891.899C937.694,891.269 938.514,890.788 939.465,890.454C940.415,890.121 941.582,889.954 942.964,889.954C945.532,889.954 947.602,890.618 949.176,891.945C950.75,893.272 951.537,895.052 951.537,897.286C951.537,898.866 951.068,900.199 950.13,901.286C949.537,901.965 948.92,902.427 948.278,902.674C948.759,902.674 949.451,903.088 950.352,903.915C951.697,905.161 952.37,906.865 952.37,909.025C952.37,911.296 951.583,913.293 950.009,915.014C948.435,916.736 946.106,917.597 943.02,917.597C939.218,917.597 936.577,916.357 935.095,913.876C934.318,912.555 933.886,910.827 933.799,908.692L938.984,908.692Z" style="fill:rgb(50,123,112);fill-rule:nonzero;"/><path d="M964.331,913.302C965.898,913.302 966.926,912.484 967.413,910.849C967.901,909.213 968.145,906.852 968.145,903.767C968.145,900.533 967.901,898.138 967.413,896.583C966.926,895.028 965.898,894.25 964.331,894.25C962.763,894.25 961.726,895.028 961.22,896.583C960.714,898.138 960.461,900.533 960.461,903.767C960.461,906.852 960.714,909.213 961.22,910.849C961.726,912.484 962.763,913.302 964.331,913.302ZM973.588,903.767C973.588,908.198 972.9,911.611 971.524,914.005C970.147,916.4 967.75,917.597 964.331,917.597C960.911,917.597 958.514,916.4 957.137,914.005C955.761,911.611 955.073,908.198 955.073,903.767C955.073,899.335 955.761,895.916 957.137,893.509C958.514,891.102 960.911,889.899 964.331,889.899C967.75,889.899 970.147,891.102 971.524,893.509C972.9,895.916 973.588,899.335 973.588,903.767Z" style="fill:rgb(50,123,112);fill-rule:nonzero;"/><path d="M975.458,916.931L982.346,906.711L975.754,896.786L982.216,896.786L985.586,902.637L988.881,896.786L995.158,896.786L988.53,906.618L995.417,916.931L988.844,916.931L985.364,910.876L981.864,916.931L975.458,916.931Z" style="fill:rgb(50,123,112);fill-rule:nonzero;"/><g transform="matrix(1,0,0,1,3.35889,0.354095)"><path d="M1006.42,913.302C1007.62,913.302 1008.57,912.938 1009.26,912.209C1009.94,911.481 1010.28,910.457 1010.28,909.136C1010.28,907.766 1009.94,906.726 1009.24,906.016C1008.54,905.306 1007.6,904.952 1006.42,904.952C1005.23,904.952 1004.29,905.306 1003.59,906.016C1002.89,906.726 1002.55,907.766 1002.55,909.136C1002.55,910.457 1002.89,911.481 1003.57,912.209C1004.26,912.938 1005.21,913.302 1006.42,913.302ZM1001.1,902.637C999.805,901.773 998.963,900.838 998.574,899.832C998.185,898.826 997.991,897.885 997.991,897.009C997.991,895.058 998.725,893.395 1000.19,892.019C1001.66,890.643 1003.74,889.954 1006.42,889.954C1009.09,889.954 1011.17,890.643 1012.64,892.019C1014.11,893.395 1014.84,895.058 1014.84,897.009C1014.84,897.885 1014.64,898.826 1014.26,899.832C1013.87,900.838 1013.02,901.711 1011.73,902.452C1013.05,903.193 1014.04,904.174 1014.71,905.396C1015.38,906.618 1015.71,907.982 1015.71,909.488C1015.71,911.747 1014.87,913.669 1013.2,915.255C1011.53,916.841 1009.19,917.634 1006.19,917.634C1003.19,917.634 1000.92,916.841 999.379,915.255C997.836,913.669 997.065,911.747 997.065,909.488C997.065,907.982 997.407,906.618 998.093,905.396C998.778,904.174 999.78,903.254 1001.1,902.637ZM1006.42,900.915C1007.49,900.915 1008.32,900.607 1008.9,899.99C1009.49,899.372 1009.78,898.576 1009.78,897.601C1009.78,896.54 1009.49,895.71 1008.9,895.111C1008.32,894.512 1007.49,894.213 1006.42,894.213C1005.35,894.213 1004.52,894.512 1003.93,895.111C1003.33,895.71 1003.03,896.54 1003.03,897.601C1003.03,898.576 1003.33,899.372 1003.93,899.99C1004.52,900.607 1005.35,900.915 1006.42,900.915Z" style="fill:rgb(50,123,112);fill-rule:nonzero;"/></g><g transform="matrix(1,0,0,1,4.94269,-0.147223)"><path d="M1017.63,916.931L1024.52,906.711L1017.93,896.786L1024.39,896.786L1027.76,902.637L1031.06,896.786L1037.34,896.786L1030.71,906.618L1037.59,916.931L1031.02,916.931L1027.54,910.876L1024.04,916.931L1017.63,916.931Z" style="fill:rgb(50,123,112);fill-rule:nonzero;"/></g><path d="M1053.3,911.654C1054.05,909.864 1055.83,907.97 1058.63,905.97C1061.06,904.23 1062.63,902.983 1063.35,902.23C1064.45,901.057 1065,899.774 1065,898.379C1065,897.243 1064.68,896.299 1064.05,895.546C1063.42,894.793 1062.52,894.417 1061.35,894.417C1059.74,894.417 1058.65,895.015 1058.07,896.213C1057.74,896.904 1057.54,898.002 1057.48,899.508L1052.35,899.508C1052.44,897.225 1052.85,895.379 1053.59,893.972C1055,891.294 1057.5,889.954 1061.09,889.954C1063.93,889.954 1066.19,890.741 1067.87,892.315C1069.55,893.889 1070.38,895.972 1070.38,898.564C1070.38,900.551 1069.79,902.316 1068.61,903.859C1067.83,904.884 1066.55,906.025 1064.77,907.284L1062.66,908.784C1061.34,909.722 1060.44,910.401 1059.95,910.821C1059.46,911.24 1059.05,911.728 1058.72,912.284L1070.44,912.284L1070.44,916.931L1052.05,916.931C1052.1,915.005 1052.52,913.246 1053.3,911.654Z" style="fill:rgb(50,123,112);fill-rule:nonzero;"/><path d="M1082.31,913.302C1083.52,913.302 1084.46,912.938 1085.15,912.209C1085.84,911.481 1086.18,910.457 1086.18,909.136C1086.18,907.766 1085.83,906.726 1085.13,906.016C1084.43,905.306 1083.49,904.952 1082.31,904.952C1081.12,904.952 1080.18,905.306 1079.48,906.016C1078.79,906.726 1078.44,907.766 1078.44,909.136C1078.44,910.457 1078.78,911.481 1079.47,912.209C1080.15,912.938 1081.1,913.302 1082.31,913.302ZM1076.99,902.637C1075.7,901.773 1074.86,900.838 1074.47,899.832C1074.08,898.826 1073.88,897.885 1073.88,897.009C1073.88,895.058 1074.62,893.395 1076.09,892.019C1077.56,890.643 1079.63,889.954 1082.31,889.954C1084.99,889.954 1087.06,890.643 1088.53,892.019C1090,893.395 1090.73,895.058 1090.73,897.009C1090.73,897.885 1090.54,898.826 1090.15,899.832C1089.76,900.838 1088.92,901.711 1087.62,902.452C1088.94,903.193 1089.94,904.174 1090.6,905.396C1091.27,906.618 1091.6,907.982 1091.6,909.488C1091.6,911.747 1090.77,913.669 1089.09,915.255C1087.42,916.841 1085.09,917.634 1082.09,917.634C1079.09,917.634 1076.82,916.841 1075.27,915.255C1073.73,913.669 1072.96,911.747 1072.96,909.488C1072.96,907.982 1073.3,906.618 1073.99,905.396C1074.67,904.174 1075.67,903.254 1076.99,902.637ZM1082.31,900.915C1083.38,900.915 1084.21,900.607 1084.8,899.99C1085.38,899.372 1085.68,898.576 1085.68,897.601C1085.68,896.54 1085.38,895.71 1084.8,895.111C1084.21,894.512 1083.38,894.213 1082.31,894.213C1081.25,894.213 1080.42,894.512 1079.82,895.111C1079.22,895.71 1078.92,896.54 1078.92,897.601C1078.92,898.576 1079.22,899.372 1079.82,899.99C1080.42,900.607 1081.25,900.915 1082.31,900.915Z" style="fill:rgb(50,123,112);fill-rule:nonzero;"/><path d="M1103.49,913.302C1105.06,913.302 1106.08,912.484 1106.57,910.849C1107.06,909.213 1107.3,906.852 1107.3,903.767C1107.3,900.533 1107.06,898.138 1106.57,896.583C1106.08,895.028 1105.06,894.25 1103.49,894.25C1101.92,894.25 1100.88,895.028 1100.38,896.583C1099.87,898.138 1099.62,900.533 1099.62,903.767C1099.62,906.852 1099.87,909.213 1100.38,910.849C1100.88,912.484 1101.92,913.302 1103.49,913.302ZM1112.75,903.767C1112.75,908.198 1112.06,911.611 1110.68,914.005C1109.31,916.4 1106.91,917.597 1103.49,917.597C1100.07,917.597 1097.67,916.4 1096.3,914.005C1094.92,911.611 1094.23,908.198 1094.23,903.767C1094.23,899.335 1094.92,895.916 1096.3,893.509C1097.67,891.102 1100.07,889.899 1103.49,889.899C1106.91,889.899 1109.31,891.102 1110.68,893.509C1112.06,895.916 1112.75,899.335 1112.75,903.767Z" style="fill:rgb(50,123,112);fill-rule:nonzero;"/><g transform="matrix(1,0,0,1,-3.48352,-2.37518)"><path d="M1148.16,900.138L1148.16,905.007L1128.11,905.007L1128.11,900.138L1148.16,900.138ZM1148.16,908.784L1148.16,913.654L1128.11,913.654L1128.11,908.784L1148.16,908.784Z" style="fill:rgb(50,123,112);fill-rule:nonzero;"/></g><path d="M1160.31,913.468C1161.29,913.345 1162,913.123 1162.44,912.802C1163.22,912.234 1163.61,911.253 1163.61,909.858C1163.61,908.797 1163.24,907.957 1162.52,907.34C1162.08,906.982 1161.35,906.612 1160.31,906.229L1160.31,913.468ZM1158.55,894.12C1157.48,894.145 1156.68,894.432 1156.16,894.981C1155.65,895.531 1155.39,896.28 1155.39,897.231C1155.39,898.268 1155.78,899.089 1156.55,899.693C1156.99,900.027 1157.65,900.335 1158.55,900.619L1158.55,894.12ZM1160.35,921.319L1158.55,921.319L1158.55,917.634C1156.12,917.363 1154.31,916.832 1153.11,916.042C1151,914.623 1149.96,912.203 1150,908.784L1155,908.784C1155.17,910.339 1155.41,911.382 1155.72,911.913C1156.2,912.74 1157.14,913.277 1158.55,913.524L1158.55,905.618L1157.05,905.174C1154.69,904.483 1153.03,903.52 1152.06,902.285C1151.09,901.051 1150.61,899.564 1150.61,897.823C1150.61,896.675 1150.8,895.632 1151.17,894.694C1151.55,893.756 1152.08,892.948 1152.76,892.269C1153.63,891.392 1154.61,890.788 1155.68,890.454C1156.34,890.245 1157.29,890.09 1158.55,889.992L1158.55,887.529L1160.31,887.529L1160.31,890.029C1162.32,890.189 1163.9,890.683 1165.05,891.51C1167.14,892.83 1168.22,894.972 1168.29,897.934L1163.42,897.934C1163.32,896.836 1163.14,896.034 1162.87,895.527C1162.4,894.651 1161.55,894.17 1160.31,894.083L1160.31,901.138C1163.25,902.15 1165.22,903.045 1166.24,903.822C1167.9,905.118 1168.74,906.945 1168.74,909.303C1168.74,912.413 1167.59,914.672 1165.31,916.079C1163.92,916.943 1162.26,917.449 1160.35,917.597L1160.35,921.319Z" style="fill:rgb(50,123,112);fill-rule:nonzero;"/><path d="M1180.6,913.339C1181.78,913.339 1182.7,912.898 1183.37,912.015C1184.04,911.132 1184.38,909.988 1184.38,908.581C1184.38,907.013 1184,905.813 1183.23,904.979C1182.47,904.146 1181.53,903.73 1180.42,903.73C1179.52,903.73 1178.72,904.001 1178.03,904.544C1176.99,905.347 1176.48,906.643 1176.48,908.432C1176.48,909.877 1176.86,911.055 1177.64,911.969C1178.42,912.882 1179.41,913.339 1180.6,913.339ZM1183.9,896.842C1183.9,896.41 1183.73,895.935 1183.4,895.416C1182.83,894.577 1181.97,894.157 1180.83,894.157C1179.11,894.157 1177.89,895.12 1177.16,897.046C1176.77,898.107 1176.49,899.675 1176.35,901.749C1177,900.971 1177.76,900.403 1178.62,900.045C1179.49,899.687 1180.47,899.508 1181.59,899.508C1183.97,899.508 1185.92,900.317 1187.44,901.934C1188.97,903.551 1189.73,905.618 1189.73,908.136C1189.73,910.642 1188.99,912.851 1187.49,914.765C1186,916.678 1183.68,917.634 1180.53,917.634C1177.15,917.634 1174.65,916.221 1173.05,913.394C1171.8,911.185 1171.18,908.334 1171.18,904.84C1171.18,902.792 1171.27,901.125 1171.44,899.841C1171.75,897.558 1172.35,895.657 1173.24,894.139C1174,892.843 1175,891.8 1176.24,891.01C1177.48,890.22 1178.97,889.825 1180.7,889.825C1183.19,889.825 1185.18,890.464 1186.66,891.741C1188.14,893.019 1188.97,894.719 1189.16,896.842L1183.9,896.842Z" style="fill:rgb(50,123,112);fill-rule:nonzero;"/><path d="M1193.51,911.654C1194.26,909.864 1196.04,907.97 1198.84,905.97C1201.27,904.23 1202.85,902.983 1203.56,902.23C1204.66,901.057 1205.21,899.774 1205.21,898.379C1205.21,897.243 1204.89,896.299 1204.27,895.546C1203.64,894.793 1202.74,894.417 1201.56,894.417C1199.96,894.417 1198.87,895.015 1198.29,896.213C1197.95,896.904 1197.76,898.002 1197.69,899.508L1192.56,899.508C1192.65,897.225 1193.06,895.379 1193.81,893.972C1195.21,891.294 1197.71,889.954 1201.3,889.954C1204.14,889.954 1206.4,890.741 1208.08,892.315C1209.76,893.889 1210.6,895.972 1210.6,898.564C1210.6,900.551 1210.01,902.316 1208.82,903.859C1208.04,904.884 1206.77,906.025 1204.99,907.284L1202.88,908.784C1201.56,909.722 1200.65,910.401 1200.16,910.821C1199.68,911.24 1199.27,911.728 1198.93,912.284L1210.65,912.284L1210.65,916.931L1192.27,916.931C1192.32,915.005 1192.73,913.246 1193.51,911.654Z" style="fill:rgb(50,123,112);fill-rule:nonzero;"/><path d="M1232,911.154L1228.96,911.154L1228.96,916.931L1223.8,916.931L1223.8,911.154L1213.17,911.154L1213.17,906.544L1223.04,890.251L1228.96,890.251L1228.96,907.025L1232,907.025L1232,911.154ZM1223.8,907.025L1223.8,895.435L1217.08,907.025L1223.8,907.025Z" style="fill:rgb(50,123,112);fill-rule:nonzero;"/><path d="M1243.7,913.302C1245.27,913.302 1246.3,912.484 1246.79,910.849C1247.27,909.213 1247.52,906.852 1247.52,903.767C1247.52,900.533 1247.27,898.138 1246.79,896.583C1246.3,895.028 1245.27,894.25 1243.7,894.25C1242.13,894.25 1241.1,895.028 1240.59,896.583C1240.09,898.138 1239.83,900.533 1239.83,903.767C1239.83,906.852 1240.09,909.213 1240.59,910.849C1241.1,912.484 1242.13,913.302 1243.7,913.302ZM1252.96,903.767C1252.96,908.198 1252.27,911.611 1250.9,914.005C1249.52,916.4 1247.12,917.597 1243.7,917.597C1240.28,917.597 1237.89,916.4 1236.51,914.005C1235.13,911.611 1234.44,908.198 1234.44,903.767C1234.44,899.335 1235.13,895.916 1236.51,893.509C1237.89,891.102 1240.28,889.899 1243.7,889.899C1247.12,889.899 1249.52,891.102 1250.9,893.509C1252.27,895.916 1252.96,899.335 1252.96,903.767Z" style="fill:rgb(50,123,112);fill-rule:nonzero;"/><path d="M1264.79,913.302C1266.36,913.302 1267.39,912.484 1267.87,910.849C1268.36,909.213 1268.61,906.852 1268.61,903.767C1268.61,900.533 1268.36,898.138 1267.87,896.583C1267.39,895.028 1266.36,894.25 1264.79,894.25C1263.22,894.25 1262.19,895.028 1261.68,896.583C1261.17,898.138 1260.92,900.533 1260.92,903.767C1260.92,906.852 1261.17,909.213 1261.68,910.849C1262.19,912.484 1263.22,913.302 1264.79,913.302ZM1274.05,903.767C1274.05,908.198 1273.36,911.611 1271.98,914.005C1270.61,916.4 1268.21,917.597 1264.79,917.597C1261.37,917.597 1258.97,916.4 1257.6,914.005C1256.22,911.611 1255.53,908.198 1255.53,903.767C1255.53,899.335 1256.22,895.916 1257.6,893.509C1258.97,891.102 1261.37,889.899 1264.79,889.899C1268.21,889.899 1270.61,891.102 1271.98,893.509C1273.36,895.916 1274.05,899.335 1274.05,903.767Z" style="fill:rgb(50,123,112);fill-rule:nonzero;"/></g><path d="M856.158,658.254C856.387,653.435 858.154,648.18 861.574,643.039L942.086,521.973C951.531,507.77 970.031,499.772 983.372,504.122L1671.83,728.646C1676.3,730.106 1679.63,732.773 1681.73,736.207C1682.13,727.717 1677.76,720.581 1669.25,717.805L980.797,493.282C967.456,488.931 948.957,496.929 939.511,511.132L858.999,632.198C852.724,641.634 852.014,651.451 856.158,658.254Z" style="fill:rgb(122,200,188);"/><path d="M1526.92,671.388L1173.48,766.074L1370.45,830.31L1681.05,729.783C1679.52,724.233 1675.5,719.843 1669.25,717.805L1526.92,671.388ZM1321.39,604.359L921.46,683.883L866.418,665.932L1268.73,587.185L1321.39,604.359ZM893.672,580.06L858.999,632.198C856.619,635.777 855.039,639.411 854.222,642.915L1215.88,569.949L1113.34,536.509L893.672,580.06Z" style="fill:url(#_Linear18);"/></g></g><g transform="matrix(1.82224,0.564521,-0.564521,1.82224,-1296.75,-1214.02)"><ellipse cx="1628.84" cy="674.425" rx="20.968" ry="7.138" style="fill:rgb(51,123,112);"/></g><g transform="matrix(1.82224,0.564521,-0.564521,1.82224,-1548.72,-1303.1)"><ellipse cx="1628.84" cy="674.425" rx="20.968" ry="7.138" style="fill:rgb(51,123,112);"/></g><g transform="matrix(1.82224,0.564521,-0.564521,1.82224,-1415.91,-1256.51)"><ellipse cx="1628.84" cy="674.425" rx="20.968" ry="7.138" style="fill:rgb(51,123,112);"/></g><g transform="matrix(1.82224,0.564521,-0.564521,1.82224,-1667.88,-1345.58)"><ellipse cx="1628.84" cy="674.425" rx="20.968" ry="7.138" style="fill:rgb(51,123,112);"/></g></g></g><path d="M755.302,1593.71C755.302,1593.71 766.2,1543.18 816.667,1524.19L1425.22,1697.76C1425.22,1697.76 1381.34,1705.64 1355.45,1764.99L755.302,1593.71Z" style="fill:rgb(230,243,255);"/><g transform="matrix(1.22334,0.340701,-0.445381,0.540291,459.272,504.325)"><rect x="821.41" y="1411.76" width="420.984" height="6.352" style="fill:rgb(98,160,219);"/></g><g transform="matrix(1.22334,0.340701,-0.445381,0.540291,449.438,516.254)"><rect x="821.41" y="1411.76" width="420.984" height="6.352" style="fill:rgb(98,160,219);"/></g><g transform="matrix(0.806031,0.224479,-0.445381,0.540291,942.752,691.161)"><rect x="821.41" y="1411.76" width="420.984" height="6.352" style="fill:rgb(98,160,219);"/></g><path d="M755.302,1593.71C755.302,1593.71 766.2,1543.18 816.667,1524.19L1425.22,1697.76C1425.22,1697.76 1381.34,1705.64 1355.45,1764.99L755.302,1593.71Z" style="fill:url(#_Linear19);"/></g></g></g></g></g></g><defs><linearGradient id="_Linear2" x1="0" y1="0" x2="1" y2="-0.0243065" gradientUnits="userSpaceOnUse" gradientTransform="matrix(-135.128,-330.92,330.92,-135.128,578.362,632.827)"><stop offset="0" style="stop-color:white;stop-opacity:0"/><stop offset="1" style="stop-color:white;stop-opacity:1"/></linearGradient><linearGradient id="_Linear3" x1="0" y1="0" x2="1" y2="-0.514566" gradientUnits="userSpaceOnUse" gradientTransform="matrix(-135.128,-330.92,330.92,-135.128,578.362,632.827)"><stop offset="0" style="stop-color:white;stop-opacity:0"/><stop offset="1" style="stop-color:white;stop-opacity:1"/></linearGradient><linearGradient id="_Linear4" x1="0" y1="0" x2="1" y2="0" gradientUnits="userSpaceOnUse" gradientTransform="matrix(50.3481,994.186,-994.186,50.3481,515.84,858.36)"><stop offset="0" style="stop-color:rgb(228,60,127);stop-opacity:1"/><stop offset="1" style="stop-color:rgb(179,0,72);stop-opacity:1"/></linearGradient><linearGradient id="_Linear5" x1="0" y1="0" x2="1" y2="0" gradientUnits="userSpaceOnUse" gradientTransform="matrix(-112.813,-540.135,392.47,-155.259,357.467,1095.06)"><stop offset="0" style="stop-color:white;stop-opacity:0"/><stop offset="1" style="stop-color:white;stop-opacity:1"/></linearGradient><linearGradient id="_Linear6" x1="0" y1="0" x2="1" y2="-0.359828" gradientUnits="userSpaceOnUse" gradientTransform="matrix(-112.813,-540.135,392.47,-155.259,357.467,1095.06)"><stop offset="0" style="stop-color:white;stop-opacity:0"/><stop offset="1" style="stop-color:white;stop-opacity:1"/></linearGradient><linearGradient id="_Linear7" x1="0" y1="0" x2="1" y2="0" gradientUnits="userSpaceOnUse" gradientTransform="matrix(-7.35875,52.1478,52.1478,7.35875,-9.53597,-6.07699)"><stop offset="0" style="stop-color:white;stop-opacity:0"/><stop offset="1" style="stop-color:white;stop-opacity:1"/></linearGradient><linearGradient id="_Linear8" x1="0" y1="0" x2="1" y2="0" gradientUnits="userSpaceOnUse" gradientTransform="matrix(52.4534,-4.7093,-4.7093,-52.4534,-43.6564,35.6)"><stop offset="0" style="stop-color:white;stop-opacity:0"/><stop offset="1" style="stop-color:white;stop-opacity:1"/></linearGradient><linearGradient id="_Linear9" x1="0" y1="0" x2="1" y2="0" gradientUnits="userSpaceOnUse" gradientTransform="matrix(471.833,-445.412,445.412,471.833,1994.67,1945.09)"><stop offset="0" style="stop-color:white;stop-opacity:0"/><stop offset="1" style="stop-color:white;stop-opacity:1"/></linearGradient><linearGradient id="_Linear10" x1="0" y1="0" x2="1" y2="-0.0241994" gradientUnits="userSpaceOnUse" gradientTransform="matrix(-135.128,-330.92,330.92,-135.128,578.362,632.827)"><stop offset="0" style="stop-color:white;stop-opacity:0"/><stop offset="1" style="stop-color:white;stop-opacity:1"/></linearGradient><linearGradient id="_Linear11" x1="0" y1="0" x2="1" y2="-0.514244" gradientUnits="userSpaceOnUse" gradientTransform="matrix(-135.128,-330.92,330.92,-135.128,578.362,632.827)"><stop offset="0" style="stop-color:white;stop-opacity:0"/><stop offset="1" style="stop-color:white;stop-opacity:1"/></linearGradient><linearGradient id="_Linear12" x1="0" y1="0" x2="1" y2="0" gradientUnits="userSpaceOnUse" gradientTransform="matrix(24.0208,-256.698,256.698,24.0208,1770.71,1825.78)"><stop offset="0" style="stop-color:white;stop-opacity:0"/><stop offset="1" style="stop-color:white;stop-opacity:1"/></linearGradient><linearGradient id="_Linear13" x1="0" y1="0" x2="1" y2="0" gradientUnits="userSpaceOnUse" gradientTransform="matrix(20.7033,-185.195,185.195,20.7033,1571.64,1873.3)"><stop offset="0" style="stop-color:white;stop-opacity:0"/><stop offset="1" style="stop-color:white;stop-opacity:1"/></linearGradient><linearGradient id="_Linear14" x1="0" y1="0" x2="1" y2="0" gradientUnits="userSpaceOnUse" gradientTransform="matrix(-121.204,-1242.79,1242.79,-121.204,1137.51,1675.68)"><stop offset="0" style="stop-color:black;stop-opacity:0"/><stop offset="1" style="stop-color:black;stop-opacity:1"/></linearGradient><linearGradient id="_Linear15" x1="0" y1="0" x2="1" y2="0" gradientUnits="userSpaceOnUse" gradientTransform="matrix(-3.243,1389.33,-1389.33,-3.243,2760.68,1353.9)"><stop offset="0" style="stop-color:rgb(55,140,127);stop-opacity:1"/><stop offset="1" style="stop-color:rgb(16,89,77);stop-opacity:1"/></linearGradient><linearGradient id="_Linear16" x1="0" y1="0" x2="1" y2="0" gradientUnits="userSpaceOnUse" gradientTransform="matrix(-968.605,-1659.65,1659.65,-968.605,1329.51,2044.56)"><stop offset="0" style="stop-color:white;stop-opacity:0"/><stop offset="1" style="stop-color:white;stop-opacity:1"/></linearGradient><linearGradient id="_Linear17" x1="0" y1="0" x2="1" y2="0" gradientUnits="userSpaceOnUse" gradientTransform="matrix(-473.765,-504.711,504.711,-473.765,2281.78,1680.49)"><stop offset="0" style="stop-color:white;stop-opacity:0"/><stop offset="1" style="stop-color:white;stop-opacity:1"/></linearGradient><linearGradient id="_Linear18" x1="0" y1="0" x2="1" y2="0" gradientUnits="userSpaceOnUse" gradientTransform="matrix(280.311,-516.102,607.846,187.917,1206.68,792.855)"><stop offset="0" style="stop-color:white;stop-opacity:0"/><stop offset="1" style="stop-color:white;stop-opacity:1"/></linearGradient><linearGradient id="_Linear19" x1="0" y1="0" x2="1" y2="0" gradientUnits="userSpaceOnUse" gradientTransform="matrix(23.4603,-229.911,229.911,23.4603,1218.22,1736.34)"><stop offset="0" style="stop-color:white;stop-opacity:0"/><stop offset="1" style="stop-color:white;stop-opacity:1"/></linearGradient></defs></svg>