<svg id="Layer_1" data-name="Layer 1" xmlns="http://www.w3.org/2000/svg" xmlns:xlink="http://www.w3.org/1999/xlink" viewBox="0 0 4500 2500"><defs><style>.cls-1{fill:none;}.cls-2{fill:#aed3f0;}.cls-3{fill:#c3dcf3;}.cls-10,.cls-11,.cls-27,.cls-3,.cls-38,.cls-39,.cls-40,.cls-41,.cls-42,.cls-43,.cls-44,.cls-45,.cls-46,.cls-47,.cls-48,.cls-49,.cls-5,.cls-50,.cls-52,.cls-53,.cls-54,.cls-56,.cls-57,.cls-59,.cls-6,.cls-60,.cls-7,.cls-8,.cls-9{fill-rule:evenodd;}.cls-4{clip-path:url(#clip-path);}.cls-20,.cls-5{fill:#fff;}.cls-5{fill-opacity:0.45;}.cls-6{fill-opacity:0.18;}.cls-7{fill:#f7fbff;}.cls-8{fill:#8ebbe5;}.cls-9{fill:#d9edff;}.cls-10{fill:#cce6ff;}.cls-11{fill-opacity:0.29;}.cls-12,.cls-38{fill-opacity:0.19;}.cls-13{fill:#c8c8c8;}.cls-14{fill:#ffc800;}.cls-15{fill:#d55789;}.cls-16{fill:#ec6198;}.cls-17{fill:url(#linear-gradient);}.cls-18{fill:url(#linear-gradient-2);}.cls-19{opacity:0.3;}.cls-21{opacity:0.1;}.cls-22{fill:#e43c7f;}.cls-23{fill:url(#linear-gradient-3);}.cls-24{fill:url(#linear-gradient-4);}.cls-25{fill:url(#linear-gradient-5);}.cls-26{opacity:0.05;}.cls-27{fill:#d81e68;}.cls-28{fill:#ffe2ed;}.cls-29{fill:#ff94be;}.cls-30{fill:#5b78c7;}.cls-31{fill:#2d4584;}.cls-32{fill:#eeadc7;}.cls-33{fill:url(#linear-gradient-6);}.cls-34{fill:url(#linear-gradient-7);}.cls-35{fill:url(#linear-gradient-8);}.cls-36{fill:url(#linear-gradient-9);}.cls-37{fill:url(#linear-gradient-10);}.cls-39{fill:#76b5e6;}.cls-40{fill:#e6f3ff;}.cls-41{fill:url(#linear-gradient-11);}.cls-42{fill:url(#linear-gradient-12);}.cls-43{fill:url(#linear-gradient-13);}.cls-44{fill:#378c7f;}.cls-45{fill:url(#linear-gradient-14);}.cls-46{fill:#98d4cb;}.cls-47{fill-opacity:0.34;}.cls-48{fill:#7eccc1;}.cls-49{fill:#44ae9e;}.cls-50{fill:url(#linear-gradient-15);}.cls-51{fill:url(#linear-gradient-16);}.cls-52{fill-opacity:0.16;}.cls-53,.cls-58{fill:#337b70;}.cls-54{fill:#c0e5df;}.cls-55{fill:#327b70;}.cls-56{fill:#7ac8bc;}.cls-57{fill:url(#linear-gradient-17);}.cls-59{fill:#62a0db;}.cls-60{fill:url(#linear-gradient-18);}</style><clipPath id="clip-path"><rect class="cls-1" width="4499.99" height="2500"/></clipPath><linearGradient id="linear-gradient" x1="1293.99" y1="1792.09" x2="1295.17" y2="1792.12" gradientTransform="matrix(-121.89, -308.36, -298.04, 126.07, 693232.17, 173659.52)" gradientUnits="userSpaceOnUse"><stop offset="0" stop-color="#fff" stop-opacity="0"/><stop offset="1" stop-color="#fff"/></linearGradient><linearGradient id="linear-gradient-2" x1="1300.6" y1="1795.1" x2="1301.79" y2="1795.71" gradientTransform="matrix(-35.15, -144.86, -85.59, 59.27, 200715.38, 82416.24)" xlink:href="#linear-gradient"/><linearGradient id="linear-gradient-3" x1="1289.12" y1="1788.78" x2="1290.3" y2="1788.78" gradientTransform="matrix(50.35, 994.19, 994.19, -50.35, -1842736.11, -1190808.44)" gradientUnits="userSpaceOnUse"><stop offset="0" stop-color="#e43c7f"/><stop offset="1" stop-color="#b30048"/></linearGradient><linearGradient id="linear-gradient-4" x1="1291.84" y1="1792.42" x2="1293.03" y2="1792.42" gradientTransform="matrix(490.5, -140.69, -140.7, -490.5, -381342.99, 1061887.25)" xlink:href="#linear-gradient"/><linearGradient id="linear-gradient-5" x1="1294.53" y1="1795.06" x2="1295.71" y2="1795.49" gradientTransform="matrix(-55.76, -306.64, -193.46, 88.24, 419738.39, 239709.63)" xlink:href="#linear-gradient"/><linearGradient id="linear-gradient-6" x1="1294.97" y1="1794" x2="1296.15" y2="1794" gradientTransform="matrix(-87.52, -235.01, -235.01, 87.52, 535186.92, 147997.94)" xlink:href="#linear-gradient"/><linearGradient id="linear-gradient-7" x1="1294.97" y1="1793.79" x2="1296.15" y2="1793.79" gradientTransform="matrix(-87.52, -235.01, -235.01, 87.52, 535186.16, 147997.77)" xlink:href="#linear-gradient"/><linearGradient id="linear-gradient-8" x1="1289.58" y1="1791.32" x2="1290.77" y2="1791.32" gradientTransform="matrix(792.35, -747.98, -747.98, -792.35, 318722.67, 2385282.98)" xlink:href="#linear-gradient"/><linearGradient id="linear-gradient-9" x1="1294.39" y1="1785.54" x2="1295.58" y2="1785.57" gradientTransform="matrix(-92.4, -233.52, -225.76, 95.56, 523179.72, 132001.03)" xlink:href="#linear-gradient"/><linearGradient id="linear-gradient-10" x1="1294.94" y1="1773.19" x2="1296.12" y2="1773.8" gradientTransform="matrix(-109.75, 26.48, 44.8, 64.91, 63064.42, -149111.55)" xlink:href="#linear-gradient"/><linearGradient id="linear-gradient-11" x1="1291.1" y1="1792.26" x2="1292.28" y2="1792.26" gradientTransform="matrix(54.5, -582.42, -582.42, -54.5, 977300.47, 850973.01)" xlink:href="#linear-gradient"/><linearGradient id="linear-gradient-12" x1="1291.41" y1="1792.31" x2="1292.6" y2="1792.31" gradientTransform="matrix(46.97, -420.19, -420.19, -46.97, 696160.99, 628326.28)" xlink:href="#linear-gradient"/><linearGradient id="linear-gradient-13" x1="1290.2" y1="1790.61" x2="1291.39" y2="1790.61" gradientTransform="matrix(-228.62, -2344.2, -2344.2, 228.62, 4494107.01, 2618734.26)" gradientUnits="userSpaceOnUse"><stop offset="0" stop-opacity="0"/><stop offset="1"/></linearGradient><linearGradient id="linear-gradient-14" x1="1289.48" y1="1789.06" x2="1290.67" y2="1789.06" gradientTransform="matrix(-3.24, 1389.33, 1389.33, 3.24, -2478666.47, -1795976.7)" gradientUnits="userSpaceOnUse"><stop offset="0" stop-color="#378c7f"/><stop offset="1" stop-color="#10594d"/></linearGradient><linearGradient id="linear-gradient-15" x1="1290.58" y1="1790.54" x2="1291.76" y2="1790.54" gradientTransform="matrix(-968.6, -1659.65, -1659.65, 968.6, 4222893.48, 409900.19)" xlink:href="#linear-gradient"/><linearGradient id="linear-gradient-16" x1="1291.44" y1="1791.12" x2="1292.62" y2="1791.12" gradientTransform="matrix(504.23, -474.28, -474.28, -504.23, 200562.86, 1517553.8)" xlink:href="#linear-gradient"/><linearGradient id="linear-gradient-17" x1="1290.26" y1="1790.97" x2="1291.45" y2="1790.97" gradientTransform="matrix(360.14, -1205.61, -1205.61, -360.14, 1696626.4, 2202209.56)" xlink:href="#linear-gradient"/><linearGradient id="linear-gradient-18" x1="1291.24" y1="1792.68" x2="1292.42" y2="1792.68" gradientTransform="matrix(53.23, -521.65, -521.65, -53.23, 868896.39, 770091.22)" xlink:href="#linear-gradient"/></defs><g id="c99"><g id="c29"><rect class="cls-2" width="4499.99" height="2500"/><path class="cls-3" d="M395.41,2500c360.42-198.08,701.46-406.35,862.34-466.38C1892.22,1797,2564.22,1881.28,3203.07,2075c189.78,57.52,369.24,145.26,563.41,192.72,215.68,52.75,460.93,58.74,682.72,72.06q25.41,1.53,50.8,1.31V2500ZM2257.89,0C1929.3,125.92,1617.4,279.9,1378.65,375.46,946.84,548.28,473.23,705.48,0,757.87V0ZM4500,691.82c-52.6-19.07-103.48-40-151.42-64.28C4086.37,494.9,3984.57,193.32,3774.71,0H4500Z"/><rect class="cls-1" width="4499.99" height="2500"/><g class="cls-4"><path class="cls-5" d="M856.9,919.25l265.79-235.34,25.68,6.52L882.56,925.77l276.14,70,265.8-235.34,25.68,6.51-265.8,235.34,276.13,70,265.8-235.37,25.68,6.52-265.8,235.34,276.13,70,265.8-235.37L2053.8,920,1788,1155.29l276.13,70L2329.93,990l25.68,6.49-265.8,235.34,276.13,70,265.8-235.34,25.68,6.49-265.8,235.34,276.13,70L2933.55,1143l25.68,6.48-265.8,235.34,276.14,70,265.79-235.34L3261,1226l-265.8,235.37,276.14,70L3537.17,1296l25.68,6.52-265.79,235.33,276.13,70L3839,1372.49l25.64,6.52-265.79,235.34,276.13,70L4140.83,1449l25.64,6.52-265.79,235.34,276.13,70,265.83-235.37,25.64,6.52-265.79,235.34,276.13,70L4744.45,1602l25.64,6.49L4504.3,1843.87l276.13,70,265.83-235.34,25.64,6.48-265.79,235.34L5112.28,1998l-26.12,23.13L4780,1943.53l-216.33,191.53,306.17,77.63-26.12,23.13-306.17-77.63-216.34,191.56,306.17,77.6-26.12,23.13-306.17-77.6-216.34,191.53L4384.91,2642l-26.13,23.13-306.17-77.6L3836.28,2779.1l306.17,77.6-26.17,23.16-306.13-77.63-216.33,191.56,306.17,77.6-26.16,23.13-306.13-77.6-216.34,191.53,306.17,77.63-26.12,23.13-306.17-77.59-279.49,247.45-25.63-6.52,279.44-247.45-276.13-70-279.49,247.42-25.68-6.49,279.49-247.45-276.13-70L2442.13,3326l-25.68-6.48,279.49-247.45-276.13-70-279.49,247.45-25.68-6.49,279.49-247.45-276.13-70L1838.51,3173l-25.68-6.48,279.49-247.45-276.14-70L1536.7,3096.51,1511,3090l279.49-247.42-276.14-70L1234.89,3020l-25.68-6.52L1488.69,2766l-276.13-70L933.08,2943.5,907.42,2937l279.46-247.45-276.15-70L631.27,2867l-25.66-6.52L885.07,2613l-276.15-70L329.46,2790.45,303.8,2784l279.46-247.45-276.15-70L27.65,2714,2,2707.46,281.45,2460,5.3,2390l-279.47,247.45-25.66-6.48,279.47-247.45-276.15-70L-576,2560.94l-25.66-6.49L-322.18,2307l-276.15-70-279.46,247.45-25.66-6.52L-624,2230.46l-367.73-93.21,26.13-23.13,367.74,93.21,216.32-191.53-367.73-93.21,26.13-23.17,367.74,93.25,216.32-191.56L-506.8,1707.9l26.13-23.13L-112.94,1778l216.33-191.53-367.73-93.24,26.13-23.13,367.73,93.21,216.33-191.53-367.73-93.21,26.13-23.13L372,1348.63l216.33-191.56-367.73-93.21,26.13-23.13,367.73,93.21L830.77,942.41,463,849.17,489.17,826ZM3049.55,3132l276.13,70L3542,3010.41l-276.14-70Zm-301.81-76.51,276.13,70,216.34-191.56-276.14-70Zm-301.81-76.5,276.13,70,216.33-191.57-276.13-70ZM3292,2917.29l276.13,70,216.33-191.53-276.13-70Zm-1147.89-14.86,276.13,70,216.33-191.56-276.13-70Zm846.08-61.65,276.13,70,216.33-191.53-276.13-70Zm-1147.89-14.85,276.13,70,216.33-191.53-276.13-70Zm846.08-61.68,276.13,70,216.33-191.56-276.13-70ZM1540.5,2749.42l276.13,70L2033,2627.88l-276.13-70Zm1994-46.82,276.13,70,216.33-191.52-276.13-70Zm-1147.89-14.86,276.13,70L2879,2566.2l-276.13-70Zm-1147.89-14.82,276.13,70,216.33-191.53-276.13-70Zm1994-46.83,276.13,70,216.33-191.53-276.13-70Zm-1147.89-14.86,276.13,70,216.33-191.56-276.13-70Zm-1147.9-14.85,276.14,70,216.33-191.53-276.13-70Zm1994-46.79,276.14,70,216.33-191.52-276.13-70ZM1783,2534.73l276.14,70,216.33-191.53-276.13-70ZM635.06,2519.87l276.14,70,216.33-191.56-276.15-70Zm3141.86-32,276.14,70,216.33-191.56-276.13-70ZM2629,2473.08l276.14,70,216.33-191.53-276.13-70Zm-1147.89-14.86,276.14,70,216.33-191.53-276.13-70Zm-1147.9-14.85,276.15,70,216.33-191.56-276.15-70Zm3141.87-32,276.13,70,216.34-191.56-276.13-70Zm-1147.89-14.86,276.13,70L2819.69,2275l-276.13-70Zm-1147.89-14.82,276.14,70,216.33-191.53-276.13-70ZM31.43,2366.86l276.15,70,216.33-191.56-276.15-70Zm3141.87-32,276.13,70,216.34-191.57-276.13-70ZM2025.41,2320l276.13,70,216.34-191.53-276.13-70Zm-1147.9-14.83,276.14,70L1370,2183.67l-276.13-70Zm-1147.89-14.85,276.15,70L222.1,2168.81l-276.15-70Zm4289.76-17.11,276.17,70,216.3-191.52-276.13-70Zm-1147.89-14.86,276.13,70L3364,2136.85l-276.13-70ZM1723.6,2243.53l276.13,70L2216.07,2122l-276.13-70ZM575.7,2228.71l276.15,70,216.33-191.53-276.15-70Zm-1147.89-14.86,276.15,70,216.32-191.53-276.14-70Zm4289.76-17.11,276.13,70L4210,2075.2l-276.13-70Zm-1147.89-14.85,276.13,70,216.34-191.53-276.13-70ZM1421.79,2167l276.13,70,216.34-191.56-276.13-70Zm-1147.9-14.86,276.15,70,216.32-191.53-276.14-70Zm3141.87-32,276.13,70,216.34-191.56-276.13-70Zm-1147.89-14.82,276.13,70,216.34-191.53-276.13-70ZM1120,2090.52l276.13,70L1612.45,1969l-276.13-70Zm-1147.9-14.86,276.15,70,216.32-191.56-276.14-70Zm4289.76-17.1,276.13,70L4754.31,1937l-276.14-70ZM3114,2043.7l276.13,70,216.34-191.56-276.14-70Zm-1147.89-14.83,276.13,70,216.34-191.53-276.14-70ZM818.16,2014l276.14,70,216.34-191.52-276.14-70Zm-1147.89-14.86,276.15,70,216.32-191.56-276.15-70ZM3960,1982.05l276.13,70,216.34-191.53-276.14-70Zm-1147.89-14.86,276.13,70,216.34-191.56-276.14-70Zm-1147.89-14.85,276.13,70,216.34-191.57-276.14-70Zm-1147.9-14.83,276.15,70L1008.83,1816l-276.16-70Zm3141.87-32,276.13,70L4150.68,1784l-276.13-70Zm-1147.89-14.86,276.13,70,216.33-191.53-276.13-70Zm-1147.89-14.86,276.13,70,216.33-191.56-276.13-70ZM214.54,1861l276.15,70L707,1739.47l-276.15-70Zm3141.87-32,276.13,70,216.33-191.53-276.13-70Zm-1147.89-14.86,276.13,70L2701,1692.64l-276.13-70Zm-1147.89-14.85,276.13,70,216.33-191.57-276.13-70Zm-1147.9-14.86,276.14,70L405.2,1663l-276.15-70Zm3141.87-32,276.13,70L3547.06,1631l-276.13-70Zm-1147.89-14.82,276.13,70,216.33-191.52-276.13-70Zm-1147.9-14.86,276.14,70,216.33-191.56-276.14-70Zm1994-46.82,276.13,70,216.33-191.56-276.13-70ZM1604.9,1661.17l276.13,70,216.33-191.53-276.13-70ZM457,1646.32l276.15,70,216.32-191.56-276.15-70Zm1994-46.83,276.13,70L2943.44,1478l-276.13-70Zm-1147.89-14.82,276.13,70,216.33-191.52-276.13-70ZM155.18,1569.81l276.16,70,216.32-191.53-276.15-70Zm1994-46.82,276.13,70,216.33-191.56-276.13-70Zm-1147.89-14.86,276.13,70,216.33-191.56-276.13-70Zm846.07-61.65,276.14,70,216.33-191.53-276.13-70ZM699.46,1431.62l276.14,70,216.33-191.56-276.15-70ZM1545.54,1370l276.14,70L2038,1248.43l-276.13-70ZM397.65,1355.12l276.14,70,216.33-191.56-276.15-70Zm846.08-61.65,276.13,70,216.34-191.53-276.13-70ZM941.91,1217l276.14,70,216.34-191.53-276.13-70ZM640.1,1140.46l276.15,70,216.33-191.53-276.15-70Z"/><path class="cls-6" d="M4227.52,46.88l11,28.69-2195.45,511L1765.72-54.26Z"/><polygon class="cls-7" points="4247.37 51.06 3740.9 -775.53 1627.01 -280.35 2133.48 546.25 4247.37 51.06"/><path class="cls-8" d="M3551.24-151.69c2.93-.69,6-.09,6.89,1.33L3708.76,95.48c.87,1.42-.8,3.14-3.73,3.82l-10.62,2.49c-2.93.69-6,.09-6.89-1.33L3536.89-145.38c-.88-1.42.8-3.14,3.73-3.82Z"/><path class="cls-8" d="M3548.33-10.7c2.93-.68,6-.09,6.89,1.34l75.45,123.13c.87,1.43-.8,3.14-3.73,3.83l-10.62,2.48c-2.93.69-6,.09-6.89-1.33L3534-4.39c-.87-1.42.8-3.13,3.73-3.82Z"/><polygon class="cls-9" points="3542.07 138.93 3341.47 -188.45 2596.76 -14 2797.35 313.38 3542.07 138.93"/><polygon class="cls-9" points="3981.93 35.74 3559.79 -653.21 3393.83 -614.33 3815.97 74.62 3981.93 35.74"/><polygon class="cls-10" points="3542.07 138.93 3491.66 56.66 2746.94 231.11 2797.35 313.38 3542.07 138.93"/><polygon class="cls-10" points="3981.93 35.74 3875.84 -137.4 3709.88 -98.52 3815.97 74.62 3981.93 35.74"/><polygon class="cls-7" points="3466.57 198.47 2995.11 -570.98 2982.98 -568.13 3454.43 201.31 3466.57 198.47"/><polygon class="cls-7" points="3361.19 223.15 2889.73 -546.29 2877.6 -543.45 3349.06 226 3361.19 223.15"/><polygon class="cls-7" points="3255.81 247.84 2784.36 -521.61 2772.22 -518.76 3243.68 250.68 3255.81 247.84"/><polygon class="cls-7" points="3150.43 272.52 2678.98 -496.92 2666.84 -494.08 3138.3 275.37 3150.43 272.52"/><polygon class="cls-7" points="3045.06 297.21 2573.6 -472.23 2561.46 -469.39 3032.92 300.05 3045.06 297.21"/><polygon class="cls-7" points="2939.68 321.89 2468.22 -447.55 2456.09 -444.71 2927.55 324.74 2939.68 321.89"/><polygon class="cls-8" points="2479.73 83.98 2639.01 343.93 2618.16 348.81 2458.88 88.86 2479.73 83.98"/><polygon class="cls-8" points="2344.27 115.71 2503.55 375.66 2482.69 380.55 2323.41 120.6 2344.27 115.71"/><polygon class="cls-8" points="2365.51 22.76 2571.93 359.65 2551.08 364.53 2344.66 27.64 2365.51 22.76"/><polygon class="cls-8" points="2345.34 242.66 2436.47 391.38 2415.62 396.26 2324.49 247.55 2345.34 242.66"/><path class="cls-11" d="M4066.47-244.74l-8.28-11.95-1689,735Z"/><polygon class="cls-7" points="4298.54 -359.18 3290.77 -1022.08 1474.68 -233.97 2482.45 428.93 4298.54 -359.18"/><polygon class="cls-9" points="3645.74 -165.92 2776.92 -737.42 2137.11 -459.77 3005.94 111.73 3645.74 -165.92"/><polygon class="cls-10" points="3645.74 -165.92 3427.4 -309.54 2787.6 -31.89 3005.94 111.73 3645.74 -165.92"/><polygon class="cls-7" points="3334.63 17.8 2396.54 -599.26 2386.11 -594.74 3324.21 22.32 3334.63 17.8"/><polygon class="cls-7" points="3244.1 57.09 2306 -559.98 2295.58 -555.45 3233.68 61.61 3244.1 57.09"/><polygon class="cls-7" points="3153.57 96.38 2215.47 -520.69 2205.05 -516.17 3143.14 100.9 3153.57 96.38"/><ellipse class="cls-12" cx="775" cy="1624.87" rx="739.41" ry="143.37" transform="translate(-81.69 41.55) rotate(-2.92)"/><path class="cls-13" d="M1396.1,400.81a372.48,372.48,0,0,1,24.49,38.32c5.69,11.24,12.64,23.63,12.26,36.4-4.09,29.62-42.44,30-63.12,29.16l-5.68-.41c6.65,12.36,13.28,25.64,17.23,39.24,15.78,49-42.32,34.3-64.71,27.87l4.65,8.09c8.52,14.8,22,46.23,4.84,53.85-16.24,5.31-35.86.74-53.3-3.2l-3.62-.91c9.67,15.7,13,38.27,1.64,50.72a39.2,39.2,0,0,1-11,9.2c20.37-8.16,26.35-33,14.19-58l-1.54,3c17.86,4.75,48.12,14.06,62.44,1.14,12.24-16.12.85-42.4-8.54-60l-2.93,6c15.25,4.34,30.67,7,45.59,4.46,36.59-6.26,19.13-50.73,3.53-79.07l-2.35,5.9c23.36.6,63.59-1.58,67.08-35.83-.19-25.34-26.54-57.67-41.11-75.94"/><path class="cls-14" d="M1380.68,657.29S1496.89,455,1309,307.37s-347.75,27.79-347.75,27.79,139.63,205.41,419.47,322.13"/><path class="cls-15" d="M1380.67,657.29C1100.84,540.58,961.23,335.15,961.23,335.15s254.38,93.9,419.44,322.14"/><path class="cls-16" d="M1282.17,342.55a23.77,23.77,0,0,0,33.47-3.8l21.1-26.57a23.85,23.85,0,1,0-37.25-29.78L1278.38,309a24,24,0,0,0,3.79,33.58"/><path class="cls-16" d="M1126.82,554.48l8.11,6.48a18.59,18.59,0,0,0,26.18-3l76-95.75-37.25-29.78-76,95.75a18.74,18.74,0,0,0,3,26.27"/><path class="cls-16" d="M1380.66,657.27C1215.6,429,961.22,335.13,961.22,335.13S1121,159.75,1309,307.36s71.71,349.91,71.71,349.91"/><ellipse class="cls-17" cx="1341.66" cy="477.82" rx="50.88" ry="127.9" transform="translate(-49.33 172.04) rotate(-7.2)"/><ellipse class="cls-18" cx="1325.51" cy="381.04" rx="14.63" ry="60.07" transform="translate(-49.01 494.46) rotate(-20.76)"/><g class="cls-19"><path class="cls-20" d="M1263.29,277.27c-83.59-2.32-163.13,59.81-207.44,102.52-20-10.84-37.76-19.61-52.29-26.38,132.63-123.56,253.33-78.63,259.47-76.25l.26.11"/><path class="cls-20" d="M1280.19,287.09c-85.83,27.55-147.32,77.5-184.06,115.69-6.16-3.72-12.21-7.22-18.1-10.61,97.64-92.64,202.16-105.08,202.16-105.08"/></g><g class="cls-21"><path d="M1380.66,657.27c-73.52-101.66-164.84-176.74-243.4-228.67,52.17,32.95,188.4,113.72,225.39,91.49,31.87-19.12,23-119.48-16.29-178.59,133.72,142.75,34.3,315.77,34.3,315.77"/></g><path class="cls-22" d="M164.51,1063.36c36.45,304.07,310.33,521.12,617.9,484l186.26-22.47L799.5,429.08,679.13,443.4c-9.51.68-19.11,1.58-28.72,2.74-307.58,37.11-522.35,313.11-485.9,617.22"/><path class="cls-23" d="M769.56,432.65c39.63,208.79-111,654.75-303.64,694.66-82.39,17.06-125.23-94.78-200.74-90.35-21.91,1.28-11.48,131.11-79.16,127,78,249.78,324,416.3,596.41,383.43l186.25-22.46L799.52,429.08Z"/><ellipse class="cls-24" cx="257.94" cy="906.31" rx="162.01" ry="50.1" transform="translate(-676.18 1030.19) rotate(-81.67)"/><ellipse class="cls-25" cx="250.62" cy="1085.91" rx="19.77" ry="101.3" transform="matrix(0.99, -0.13, 0.13, 0.99, -141.4, 42.68)"/><g class="cls-26"><path d="M943.08,1359.15l-472.85,136h-.06a551.83,551.83,0,0,1-141.82-99.83l593.93-170.87Z"/><path d="M916.67,1188,299.81,1365.43q-14.73-16.54-28.21-34.37L910.38,1147.3Z"/></g><path class="cls-27" d="M372.42,1651.28l66-231.16s44.32-14.32,61.55,30.14l-77.79,220.46S385.07,1681.07,372.42,1651.28Z"/><path class="cls-16" d="M1367.82,929.48c34.42,304.84-166,574.85-447.7,603.08s-537.92-196-572.34-500.86,166-574.85,447.7-603.09,537.92,196,572.34,500.87"/><g class="cls-21"><path d="M1369.28,941.76c33.43,290.77-151.8,547.24-413.72,572.85s-501.34-189.36-534.77-480.13,151.8-547.24,413.72-572.84S1335.85,651,1369.28,941.76"/></g><path class="cls-28" d="M1339.33,944.68c31.32,272.41-142.21,512.68-387.59,536.67s-469.68-177.4-501-449.81S593,518.85,838.33,494.87s469.68,177.4,501,449.81"/><path class="cls-29" d="M832.78,495.45c1.82-.19,3.69-.39,5.55-.57,245.37-24,469.69,177.4,501,449.81s-142.21,512.68-387.58,536.67c-1.94.2-3.89.35-5.79.51,236.2-26.57,401.92-264.72,371-535S1069.87,475.65,832.78,495.45Z"/><path class="cls-22" d="M945,1386.19l5.27,45.78-8.33.82L936.69,1387c1.37-.08,2.76-.22,4.17-.36S943.66,1386.37,945,1386.19Zm-185.89-33.41-16,41.57-7.76-3.92,16.05-41.61C753.94,1350.24,756.5,1351.51,759.12,1352.78Zm383.57-2.17L1136,1356l-25.12-37.6c2.26-1.7,4.48-3.49,6.68-5.32Zm-533.1-129-33,26.36-5.08-7.6,33-26.36Q607,1217.84,609.59,1221.58Zm659.16-49.4-3.23,8.42-38.3-19.39c1.13-2.79,2.18-5.59,3.23-8.42Zm-732.67-149c.18,1.57.35,3.07.57,4.62l-41.23,4-1.05-9.24,41.21-4C535.72,1020.08,535.9,1021.63,536.08,1023.18Zm758.58-78.81,1.06,9.24-41.24,4c-.14-1.55-.31-3.06-.47-4.62s-.38-3.1-.58-4.62ZM562.86,815c-1.13,2.81-2.18,5.6-3.23,8.43l-38.3-19.37,3.24-8.42Zm655.75-79.1-33,26.35c-1.65-2.56-3.35-5.09-5.1-7.62l33.06-26.36ZM679.22,657.85c-2.24,1.75-4.47,3.5-6.67,5.37L647.39,625.6l6.69-5.33ZM848.14,543.47l5.25,45.76c-1.37.1-2.75.24-4.16.38s-2.8.26-4.15.44l-5.28-45.77Z"/><path class="cls-30" d="M1047.68,604.65,903.16,1028.29l-39.08-20.12,173-409Z"/><path class="cls-31" d="M710.13,716.55l220.22,282.7-33.64,27.21L701,723.94Z"/><path class="cls-13" d="M909.41,986.7c1,8.83-4.6,16.61-12.54,17.38s-15.21-5.74-16.23-14.56,4.61-16.6,12.55-17.38,15.22,5.74,16.22,14.56"/><path class="cls-32" d="M903.5,973.94A18.79,18.79,0,0,1,908.18,998a14.49,14.49,0,0,1-21.63,4.24,18.78,18.78,0,0,1-4.68-24.1,14.5,14.5,0,0,1,21.63-4.23"/><path class="cls-32" d="M898.66,982l261.16,202.74-2.48,4.15L891.41,994.16Z"/><path class="cls-16" d="M445.33,586.58,432.25,598.8a18.59,18.59,0,0,1-26.33-.94L343.2,530.31l40.35-37.7,62.72,67.55a18.74,18.74,0,0,1-.94,26.42"/><path class="cls-16" d="M158.37,736.26S6.28,513.19,210,326s403.8,1,403.8,1-180,257.62-455.47,409.27"/><g class="cls-19"><path class="cls-33" d="M254.82,676.65c-17.28,11.86-35.14,23.47-53.44,34.6-113-214.22-21-353.66-17.57-358.79a.8.8,0,0,1,.12-.17c-27.21,124.43,39,265.92,70.89,324.36"/><path class="cls-34" d="M299,645c-6.92,5.19-13.89,10.31-21,15.48-.76-1.41-1.58-2.83-2.39-4.24-92.1-164.54-76.41-319.76-76.41-319.76C208.66,491.16,268.56,599.28,299,645"/></g><g class="cls-21"><path d="M613.87,327S513.55,470.55,348.11,606.39c97.08-92.93,179.37-215.51,171.45-267.95-3.87-25.72-27.29-76.46-165.32-90.28C498.75,218.78,613.87,327,613.87,327"/></g><path class="cls-16" d="M245.46,363l-2.71,2.53a25.65,25.65,0,0,1-36.34-1.3l-29.24-31.49a25.86,25.86,0,0,1,1.29-36.46l2.71-2.53A25.66,25.66,0,0,1,217.51,295l29.24,31.5A25.86,25.86,0,0,1,245.46,363"/><path class="cls-35" d="M1338.61,938.72q.39,3,.72,6c31.31,272.42-142.21,512.68-387.58,536.67A409.26,409.26,0,0,1,801,1467.92ZM1224.3,666.88a523.19,523.19,0,0,1,33.56,46.64L595.31,1342.83a515.15,515.15,0,0,1-56-69.37ZM1036.44,524.64A458.87,458.87,0,0,1,1152,594L493.69,1190.69a550.51,550.51,0,0,1-42.95-159.15c-.44-3.92-.86-7.84-1.21-11.7Z"/><ellipse class="cls-36" cx="429.68" cy="294.57" rx="38.66" ry="96.58" transform="translate(61.62 663.25) rotate(-79.48)"/><ellipse class="cls-37" cx="356.37" cy="283.96" rx="45.37" ry="11.11" transform="translate(-14.97 19.88) rotate(-3.13)"/><path class="cls-38" d="M-128.17,2661l-135.43,87.2a71.12,71.12,0,0,0-32,68.64,71,71,0,0,0,47.91,58.58l1640.15,547.66a179.14,179.14,0,0,0,166.39-28.26c94.58-73.16,1641.06-1322.09,1641.06-1322.09s229.94,109.09,372.89,176.82c58.7,27.81,128.71,15.58,181.42-22.45l154.36-111.44a66,66,0,0,0-12.44-114.12L3631.45,1887.5l23.8-338.43,601.56,258.56a157.28,157.28,0,0,0,157.29-19.29l216.32-164.29,29.35-236.14-293.08-235.53-572.3,129.93Z"/><path class="cls-39" d="M4530.81,974.42s46.14,4.68,48.82,42.28,1.42,422.49,1.42,422.49S4310.39,1331.48,4310,1319.84s18-293.56,18-293.56l133.91-63.23Z"/><path class="cls-40" d="M3193.13,991.07s-15-204.86-11.1-266.8,38.93-135,165.76-112.15,1183,362.3,1183,362.3-138.36,26.82-142.76,231-4,403.26-50.85,449.82-79.25,63.06-153.4,4.41-369.48-262-368.6-275.44S3193.13,991.07,3193.13,991.07Z"/><path class="cls-41" d="M3193.13,991.07s-15-204.86-11.1-266.8,38.93-135,165.76-112.15,1183,362.3,1183,362.3-138.36,26.82-142.76,231-4,403.26-50.85,449.82-79.25,63.06-153.4,4.41-369.48-262-368.6-275.44S3193.13,991.07,3193.13,991.07Z"/><path class="cls-39" d="M4050,1298.13a97.91,97.91,0,0,1,25.42-.19c14.18,1.72,64.23,24.83,65,80s-17,219.9,19.06,257.23,93.19,62.8,93.19,62.8l-378.09-159.76,58.72-214Z"/><path class="cls-40" d="M3696.14,2081.77s49.47,17.64,94.05,5,93.75-79.05,95.25-243,51.23-523.76,169.35-546.51l-579.15-170.92-82.78,363.19,91.2,426,163.86,138.91Z"/><path class="cls-42" d="M3696.14,2081.77s49.47,17.64,94.05,5,93.75-79.05,95.25-243,51.23-523.76,169.35-546.51l-579.15-170.92-82.78,363.19,91.2,426,163.86,138.91Z"/><path class="cls-39" d="M3405.35,1033.19s106.3-.27,128.31,134.77,12.14,624,30.24,711.16,41.71,140.82,132.24,202.65L3058.2,1756.26,2946,1111.83Z"/><path class="cls-43" d="M3190.5,1784.15-128.17,2661l-135.43,87.2A69.82,69.82,0,0,0-278.46,2761l1623.85,555.86a264.35,264.35,0,0,0,250.17-43.24c376.35-299.16,1489.27-1220.33,1489.27-1220.33l109.3-249.05Z"/><path class="cls-44" d="M3348.58,1208.73s39.63,153.62,45.13,192.66c3.64,25.91-20.88,150.43-31.62,174.28-15.56,34.57-63.5,22.61-98.18,80.08-62.56,103.68-121.42,288.23-149.24,350a158.66,158.66,0,0,1-46.91,59.84L1592.27,3220.08a272.77,272.77,0,0,1-257.46,43C993.5,3144.93,126.19,2859-158.82,2760.29c-56.63-19.61-105.26-86-112.85-145.6-5.29-41.52-7.23-80.74-7.23-80.74Z"/><path class="cls-45" d="M3389.87,1450.44c-6.88,46.62-20.49,109.06-27.78,125.23-15.56,34.57-63.5,22.6-98.18,80.08-62.55,103.68-121.42,288.23-149.24,350a158.73,158.73,0,0,1-46.9,59.83l-767.46,600.49c-93.34,7.49-175.11,2.67-199.68-30.26-2.92-3.9,35.83-24,39.9-26.39,55.65-32.21,106.75-75.06,159.73-111.52,130.33-89.7,254-191,387.08-276.53,98.69-63.4,210.83-103.07,309.32-163.28C3250.38,1903,3010.85,1548.74,3389.87,1450.44Z"/><path class="cls-46" d="M1436.17,797.12l154-92.12a84,84,0,0,1,64.09-9.26C1856.36,747.83,2981,1074.45,3309.45,1170a57.35,57.35,0,0,1,25.1,94.92c-51.93,53.59-117.88,118.33-129.64,114.12C3185,1371.94,1436.17,797.12,1436.17,797.12Z"/><path class="cls-47" d="M3191.2,1135.59c36.38,10.6,69,20.07,97.05,28.22l-73.11,49.56-38.71-36.55Z"/><path class="cls-48" d="M1209.62,1354.08a88.76,88.76,0,0,1-19.17,20.78L-251.63,2507.71a51.16,51.16,0,0,0-18.76,49.07,51,51,0,0,0,34.32,39.71l1616.28,530.76a137.31,137.31,0,0,0,127.69-22.52c278.89-219.07,1471.17-1155.68,1471.17-1155.68l.34.1s179-440.3,242.66-597c3.3-8.12-1.43-36-13.84-56.32-12-19.67-31.61-31.82-39.65-34.46-282.72-92.49-1233.72-346-1519.95-439.66a97.86,97.86,0,0,0-112,39Z"/><path class="cls-49" d="M1201.58,1333a88.54,88.54,0,0,1-19.17,20.78L-259.66,2486.61a51.17,51.17,0,0,0-18.77,49.07,51,51,0,0,0,34.32,39.71l1616.28,530.76a137.36,137.36,0,0,0,127.7-22.51L2971,1928l.34.1s145.27-355,218.35-528.43c6.71-15.89,31.51-65.33,20.34-96.34-16.6-46.2-75.3-53.91-91.64-59.26-282.72-92.5-1292.8-363.09-1579-456.74-41.83-13.68-91-13.18-115.34,23.57C1337,942.16,1243.57,1269.64,1201.58,1333Z"/><path class="cls-50" d="M1450.39,787.65a66.52,66.52,0,0,0-26.34,23.21c-87,131.3-180.48,458.78-222.46,522.12a89.06,89.06,0,0,1-19.18,20.79L-194.71,2435.57l-31.81,145.6,20.7,6.81c89.1-68.15,163.15-165.36,246.48-238.87,279.09-246.19,818.05-749,1198-802.23,128.59-18,258.53,32.39,381.89,65,167.15,44.14,333.58,74.31,497.77,132,61.81,21.71,293.58,89.59,301.54,78.78,3.34-4.55-22.06-46.26-24.12-47.58-73.94-47.5-138.81-59.88-223.72-85.07-101.28-30-201-66.38-301.88-98-106.85-33.4-569-115.59-630.39-184.59-84.58-95.15,287.5-554.79,219.18-613.16A106.41,106.41,0,0,0,1450.39,787.65Z"/><ellipse class="cls-51" cx="2370.21" cy="1800.01" rx="46.22" ry="271.48" transform="translate(-88.6 3476.96) rotate(-71.51)"/><path class="cls-52" d="M1529.76,2878.07c10.18-7.92,8-17.73-5-21.92l-175.6-56.91c-12.93-4.19-31.71-1.18-41.89,6.71l-36.91,28.62c-10.19,7.89-8,17.71,5,21.9L1451,2913.4c12.94,4.19,31.71,1.18,41.9-6.71Zm-295.5-95.8c10.18-7.9,8-17.71-5-21.9l-175.61-56.91c-12.93-4.2-31.71-1.18-41.89,6.71l-36.91,28.62c-10.19,7.89-8,17.7,5,21.9l175.6,56.93c12.94,4.19,31.71,1.18,41.9-6.72Zm548-88.32c18.38-14.26,14.36-32-9-39.54l-316.85-102.69c-23.34-7.58-57.21-2.15-75.59,12.11l-66.6,51.64c-18.38,14.26-14.35,32,9,39.52l316.84,102.71c23.34,7.57,57.21,2.13,75.59-12.11Zm-533.16-172.83c18.38-14.26,14.35-32-9-39.54L923.25,2378.89c-23.34-7.57-57.21-2.15-75.59,12.11l-66.6,51.64c-18.38,14.26-14.35,32,9,39.54l316.83,102.69c23.34,7.57,57.21,2.13,75.59-12.11Zm771.41-11.91c18.38-14.25,14.36-32-9-39.53L1694.66,2367c-23.33-7.57-57.2-2.13-75.58,12.12l-66.6,51.63c-18.38,14.26-14.35,32,9,39.54L1878.31,2573c23.34,7.58,57.21,2.15,75.59-12.11ZM715.91,2348.3c18.38-14.24,14.35-32-9-39.52L390.09,2206.07c-23.35-7.58-57.22-2.13-75.6,12.11l-66.6,51.63c-18.37,14.27-14.34,32,9,39.55l316.83,102.69c23.35,7.57,57.22,2.15,75.6-12.12Zm771.42-11.92c18.38-14.24,14.35-32-9-39.52L1161.5,2194.15c-23.34-7.56-57.21-2.13-75.59,12.11l-66.6,51.66c-18.38,14.24-14.35,31.94,9,39.52l316.83,102.71c23.35,7.55,57.22,2.13,75.6-12.14Zm771.41-11.92c18.38-14.24,14.34-31.95-9-39.52l-316.84-102.69c-23.33-7.57-57.2-2.15-75.58,12.09L1790.71,2246c-18.38,14.24-14.34,32,9,39.52l316.83,102.71c23.36,7.55,57.23,2.13,75.61-12.11ZM954.16,2163.55c18.38-14.24,14.35-32-9-39.52l-316.84-102.7c-23.34-7.57-57.21-2.14-75.59,12.11l-66.6,51.65c-18.38,14.24-14.35,31.95,9,39.52L812,2227.32c23.34,7.55,57.21,2.13,75.59-12.11Zm771.42-11.89c18.38-14.27,14.34-32-9-39.55l-316.84-102.69c-23.34-7.57-57.21-2.14-75.59,12.11l-66.6,51.64c-18.38,14.25-14.35,32,9,39.52l316.84,102.71c23.34,7.55,57.2,2.13,75.59-12.11Zm739.21,6.47c8.87-6.86,7.65-15.19-2.71-18.54L2228,2063.71c-10.37-3.36-26-.51-34.85,6.36L2161,2095c-8.88,6.88-7.64,15.19,2.72,18.54l234.1,75.88c10.37,3.38,26,.52,34.85-6.36Zm-393.18-127.44c8.87-6.87,7.65-15.19-2.71-18.55l-234.1-75.88c-10.37-3.36-26-.51-34.85,6.37l-32.14,24.92c-8.86,6.87-7.64,15.18,2.72,18.55l234.1,75.88c10.36,3.36,26,.5,34.85-6.37Zm-879.21-51.87c18.38-14.25,14.35-32-9-39.53l-316.84-102.7c-23.34-7.56-57.21-2.14-75.59,12.12l-66.6,51.64c-18.38,14.25-14.35,32,9,39.53l316.83,102.7c23.34,7.56,57.22,2.14,75.59-12.12Zm486.05-75.57c8.87-6.88,7.65-15.19-2.73-18.55l-234.09-75.88c-10.37-3.36-26-.51-34.86,6.37l-32.13,24.91c-8.87,6.88-7.65,15.19,2.72,18.55l234.1,75.88c10.37,3.36,26,.51,34.86-6.37ZM1285.27,1775.8c8.87-6.87,7.65-15.18-2.72-18.55l-234.1-75.88c-10.37-3.36-26-.5-34.85,6.37l-32.14,24.92c-8.87,6.87-7.64,15.19,2.73,18.55l234.09,75.88c10.37,3.36,26,.51,34.86-6.37Z"/><path class="cls-53" d="M1528.21,2845.3c10-7.92,14.69-51,1.92-55.16L1350,2766.47c-12.77-4.19-31.3-1.18-41.36,6.71l-37.35-2.13c-10.06,7.9-6.93,48.45,5.84,52.65l173.33,56.93c12.77,4.19,31.3,1.18,41.36-6.72Zm-291.68-95.8c10-7.9,14.66-49.75,1.89-53.94l-180.14-24.87c-12.77-4.2-31.3-1.18-41.36,6.71l-38.16-2.26c-10.06,7.9-6.12,48.58,6.65,52.78l173.33,56.92c12.77,4.2,31.3,1.19,41.35-6.71Zm540.9-88.32c18.15-14.26,22.16-62.22-.88-69.79L1455.82,2519c-23-7.58-56.47-2.15-74.61,12.11l-67.56,24.27c-18.14,14.26-12.35,59.33,10.7,66.89l312.74,102.71c23,7.57,56.47,2.13,74.61-12.12Zm-526.27-172.83c18.14-14.26,14.17-32-8.87-39.54L929.54,2346.12c-23-7.57-56.47-2.15-74.61,12.11l-71,27.43c-18.14,14.25-8.9,56.18,14.14,63.75l312.75,102.69c23,7.57,56.47,2.13,74.61-12.11Zm761.45-11.92c18.14-14.24,22.43-62.13-.63-69.68l-321-72.55c-23-7.57-56.46-2.13-74.6,12.11l-66.48,20c-18.14,14.24-13.43,63.62,9.61,71.19l312.75,102.69c23,7.57,56.47,2.15,74.61-12.11ZM724.88,2315.53c18.14-14.25,22-61-1-68.55l-320.61-73.69c-23-7.57-56.47-2.13-74.61,12.12l-69.51,23.51c-18.15,14.27-10.4,60.09,12.64,67.67l312.75,102.68c23,7.58,56.47,2.16,74.61-12.11Zm761.45-11.92c18.14-14.24,14.16-32-8.88-39.52l-312.74-102.71c-23-7.56-56.47-2.13-74.62,12.11l-66.38,22.37c-18.15,14.27-13.52,61.23,9.52,68.81L1346,2367.38c23,7.55,56.48,2.13,74.62-12.14Zm761.45-11.92c18.14-14.24,20.95-67.79-2.08-75.37l-319.54-66.84c-23-7.57-56.47-2.15-74.61,12.09l-69,23.71c-18.14,14.24-10.94,59.92,12.09,67.47l312.75,102.71c23,7.55,56.48,2.13,74.63-12.11ZM960.05,2130.78c18.14-14.24,22-62.2-1-69.77l-320.61-72.45c-23-7.57-56.48-2.14-74.62,12.11l-70.69,23.75c-18.14,14.25-9.21,59.85,13.83,67.42l312.74,102.71c23,7.55,56.48,2.13,74.62-12.11Zm761.45-11.9c18.14-14.26,23.31-61.36.26-68.93l-321.88-73.3c-23-7.57-56.48-2.15-74.62,12.11l-66.8,21.92c-18.14,14.25-13.1,61.69,9.94,69.24l312.74,102.71c23,7.55,56.47,2.13,74.61-12.11Zm729.67,6.48c8.75-6.86,12.91-48.19,2.68-51.55l-236.44-42.87c-10.23-3.37-25.65-.51-34.4,6.36l-32.27-7.31c-8.75,6.88-7,47.41,3.23,50.77l231.08,75.88c10.23,3.38,25.65.52,34.4-6.37Zm-388.1-127.44c8.75-6.87,13.16-47.19,2.93-50.55l-236.69-43.88c-10.23-3.36-25.65-.51-34.4,6.37l-32.92-5.5c-8.75,6.87-6.35,45.6,3.88,49L1997,2029.21c10.23,3.36,25.65.5,34.4-6.37Zm-867.86-51.87c18.15-14.25,22.49-64-.55-71.56l-321.07-70.67c-23-7.56-56.47-2.14-74.61,12.11l-69.72,23.19c-18.14,14.25-10.18,60.42,12.86,68l312.74,102.7c23,7.56,56.47,2.13,74.62-12.12ZM1675,1870.48c8.75-6.88,12.91-47.94,2.66-51.3l-236.43-43.13c-10.24-3.36-25.66-.51-34.41,6.36l-33.69-5.62c-8.75,6.88-5.57,45.73,4.66,49.09l231.07,75.88c10.25,3.36,25.67.51,34.42-6.37ZM1286.88,1743c8.76-6.87,13.23-48.58,3-51.94l-236.75-42.49c-10.23-3.36-25.65-.5-34.4,6.37l-33-6.76c-8.76,6.87-6.25,46.86,4,50.22l231.07,75.88c10.24,3.37,25.65.51,34.41-6.36Z"/><path class="cls-46" d="M1529.81,2809c10.06-7.91,7.86-17.72-4.91-21.92l-173.34-56.91c-12.77-4.19-31.3-1.18-41.35,6.72l-36.43,28.61c-10.06,7.9-7.86,17.71,4.91,21.9L1452,2844.28c12.77,4.2,31.29,1.18,41.35-6.71Zm-291.68-95.8c10.06-7.9,7.85-17.71-4.92-21.9l-173.33-56.91c-12.77-4.19-31.3-1.18-41.35,6.71l-36.44,28.62c-10.05,7.89-7.85,17.7,4.92,21.9l173.33,56.93c12.78,4.19,31.3,1.18,41.36-6.71ZM1779,2624.83c18.14-14.26,14.17-32-8.86-39.54L1457.43,2482.6c-23-7.57-56.48-2.15-74.62,12.11l-65.74,51.64c-18.14,14.26-14.16,32,8.88,39.52l312.75,102.71c23,7.57,56.46,2.13,74.61-12.11ZM1252.77,2452c18.14-14.27,14.16-32-8.88-39.55L931.15,2309.77c-23-7.57-56.48-2.15-74.62,12.12l-65.74,51.63c-18.14,14.27-14.16,32,8.88,39.54l312.74,102.69c23,7.58,56.48,2.13,74.62-12.11Zm761.44-11.92c18.14-14.25,14.18-32-8.88-39.53l-312.74-102.71c-23-7.57-56.47-2.13-74.61,12.12l-65.74,51.63c-18.14,14.27-14.16,32,8.88,39.55l312.75,102.68c23,7.58,56.47,2.16,74.61-12.11ZM726.49,2279.18c18.14-14.24,14.16-32-8.88-39.52L404.87,2137c-23-7.58-56.48-2.13-74.62,12.11l-65.74,51.64c-18.14,14.26-14.16,32,8.88,39.54l312.74,102.69c23,7.57,56.48,2.15,74.62-12.12Zm761.44-11.92c18.14-14.24,14.17-32-8.87-39.52L1166.32,2125c-23-7.55-56.48-2.13-74.62,12.11L1026,2188.8c-18.14,14.24-14.17,31.95,8.88,39.52L1347.58,2331c23,7.55,56.47,2.13,74.61-12.13Zm761.45-11.92c18.15-14.24,14.16-32-8.88-39.52l-312.74-102.69c-23-7.57-56.46-2.15-74.61,12.09l-65.75,51.66c-18.14,14.24-14.15,32,8.88,39.52L2109,2319.11c23.06,7.55,56.49,2.13,74.63-12.11ZM961.65,2094.43c18.14-14.24,14.17-31.94-8.87-39.52L640,1952.21c-23-7.56-56.47-2.14-74.61,12.11L499.68,2016c-18.14,14.24-14.17,32,8.87,39.52L821.3,2158.2c23,7.56,56.47,2.13,74.61-12.11Zm761.46-11.89c18.14-14.27,14.15-32-8.88-39.55L1401.48,1940.3c-23-7.57-56.47-2.14-74.61,12.11l-65.74,51.64c-18.14,14.25-14.17,32,8.87,39.52l312.74,102.71c23,7.56,56.47,2.13,74.61-12.11Zm729.66,6.47c8.75-6.86,7.55-15.19-2.68-18.54L2219,1994.59c-10.23-3.36-25.65-.51-34.4,6.37l-31.72,24.91c-8.77,6.88-7.55,15.19,2.68,18.54l231.08,75.89c10.23,3.37,25.65.51,34.4-6.37Zm-388.1-127.44c8.75-6.87,7.55-15.18-2.68-18.54l-231.08-75.89c-10.23-3.36-25.65-.5-34.4,6.37l-31.71,24.92c-8.75,6.88-7.55,15.19,2.68,18.55l231.07,75.88c10.23,3.36,25.65.51,34.4-6.37Zm-867.85-51.87c18.14-14.25,14.16-32-8.88-39.53L875.2,1767.47c-23-7.56-56.48-2.13-74.62,12.12l-65.74,51.64c-18.14,14.25-14.16,32,8.88,39.53l312.74,102.7c23,7.57,56.48,2.14,74.62-12.11Zm479.77-75.57c8.75-6.88,7.55-15.19-2.7-18.55l-231.07-75.88c-10.23-3.36-25.65-.51-34.4,6.37L1376.7,1771c-8.75,6.88-7.55,15.19,2.69,18.55l231.07,75.88c10.24,3.37,25.66.51,34.41-6.36Zm-388.1-127.44c8.75-6.88,7.55-15.19-2.69-18.55l-231.07-75.88c-10.24-3.36-25.66-.51-34.41,6.36l-31.72,24.92c-8.75,6.88-7.54,15.19,2.69,18.55L1222.36,1738c10.24,3.36,25.66.51,34.41-6.37Z"/><path class="cls-46" d="M3114.84,1481.88c15.56-39.55,2.74-79.77-28.61-89.75L1468.3,877.1c-31.35-10-69.44,14-85,53.58l-132.66,337.18c-15.56,39.55-2.74,79.77,28.62,89.75l1617.93,515c31.34,10,69.44-14,85-53.59Z"/><path class="cls-54" d="M3114.84,1481.88c15.56-39.55,2.74-79.77-28.61-89.75L1468.3,877.1c-31.35-10-69.44,14-85,53.58l-132.66,337.18c-15.56,39.55-2.74,79.77,28.62,89.75l1617.93,515c31.34,10,69.44-14,85-53.59Z"/><path class="cls-55" d="M1409.94,1199.05c4.19.75,7.42.75,9.67,0q5.92-2,8.62-10.72a13.61,13.61,0,0,0-1.27-11.86q-2-3.07-7.69-7.47Zm17.66-82.61q-6.72-1.93-11,.49t-6.12,8.33a12.85,12.85,0,0,0,1.65,11.73,28.54,28.54,0,0,0,7.08,6.43ZM1400,1231.7l-7.44-2.33,4.76-15.3q-14.58-6.4-20.48-13.65-10.36-12.93-3.52-34.16l20.69,6.47q-1.93,10-1,13.92,1.38,6.09,9.64,10.36l10.2-32.83-5.64-3.78q-13.29-8.88-16.92-18.45a30.59,30.59,0,0,1-.27-20.41,36.38,36.38,0,0,1,6.37-12.26,31.07,31.07,0,0,1,9.68-8,30.69,30.69,0,0,1,14.45-3.76,58.29,58.29,0,0,1,12.47,1.8l3.18-10.23,7.28,2.28-3.23,10.38q12.19,4.89,17.71,12.28,10.4,12.27,5.13,30.86l-20.15-6.3q1.5-7,.8-10.71-1.22-6.36-8.71-9.3l-9.1,29.29q16.29,12,21.06,18.81,7.84,11.31,3.29,26-6,19.38-22.92,23.71a47,47,0,0,1-22.49-.12Z"/><path class="cls-55" d="M1481.77,1199.74a26.29,26.29,0,0,0-1.29,11.74q1.47,9.32,12,12.6a16.77,16.77,0,0,0,12.6-.92q6.17-2.92,8.74-11.22,3.42-11-4.33-17.46-4.41-3.66-15.29-7.06l4.87-15.68q10.7,3.18,15.51,2.57,8.28-1,11.34-10.8a15.32,15.32,0,0,0-.5-11.53q-2.48-5.16-9.22-7.27-7.74-2.42-12.91,1.36t-7.56,12.06l-20.39-6.37a57.7,57.7,0,0,1,7.73-14.88,37.08,37.08,0,0,1,12.18-9.43,30.58,30.58,0,0,1,12-2.81,45.88,45.88,0,0,1,15.13,2.45q15.94,5,23.14,16.3t2.89,25.23a25.72,25.72,0,0,1-11,14.79,20.75,20.75,0,0,1-9.46,3.36q3,.95,7,7.84,5.94,10.37,1.76,23.83a37.4,37.4,0,0,1-17.49,21.81q-13.11,7.66-32.26,1.69-23.6-7.38-28-25.7-2.27-9.73,1.32-23.2Z"/><path class="cls-55" d="M1580.73,1251.66q9.74,3,15.92-6.19t12.16-28.46q6.26-20.15,6.23-30.78t-9.75-13.67q-9.74-3-15.88,5.66t-12.4,28.85q-6,19.22-6,30.39T1580.73,1251.66Zm50.61-27.61q-8.56,27.59-21.74,39.84t-34.4,5.61q-21.24-6.64-25.15-24.22t4.66-45.18q8.57-27.6,21.77-39.92t34.42-5.69q21.22,6.63,25.12,24.29T1631.34,1224.05Z"/><path class="cls-55" d="M1622.11,1281.12l41.68-33.52-14.49-49.74,26.75,8.36,6.4,28.65,21.18-20,26,8.12-40.1,32.25,15.2,51.73-27.2-8.5-6.6-29.65-22.29,20.62Z"/><path class="cls-55" d="M1768.38,1311.91c5,1.56,9.37,1.27,13.16-.86s6.48-6,8.18-11.44c1.77-5.69,1.7-10.45-.28-14.3s-5.41-6.54-10.3-8.07-9.27-1.28-13.08.76-6.56,5.92-8.33,11.61q-2.55,8.23.26,14.08T1768.38,1311.91Zm-8.27-51.16q-6.37-7.89-6.84-14.91a34.34,34.34,0,0,1,1.23-12.48,28.63,28.63,0,0,1,15.53-17.87q11.79-5.71,28.45-.52c11,3.45,18.77,9,23.08,16.62a28.67,28.67,0,0,1,2.67,23.56,35.07,35.07,0,0,1-6,11c-2.91,3.67-7.55,6.19-13.85,7.6a32.55,32.55,0,0,1,8.54,16.08,36.36,36.36,0,0,1-1.14,18.28,33.26,33.26,0,0,1-17.82,20.7q-13.44,6.64-32.08.81t-25.12-18.68a34.71,34.71,0,0,1-2.14-26.94,35.65,35.65,0,0,1,9.53-15.66A28.18,28.18,0,0,1,1760.11,1260.75Zm24.24-.27c4.43,1.39,8.26,1.18,11.45-.63a14.41,14.41,0,0,0,6.73-8.78c1.36-4.41,1.23-8.23-.44-11.48s-4.67-5.55-9.1-6.94-8.25-1.21-11.47.51-5.56,4.77-6.93,9.18a14.34,14.34,0,0,0,.64,11.08Q1777.71,1258.42,1784.35,1260.48Z"/><path class="cls-55" d="M1817.3,1341.45l41.69-33.53-14.48-49.73,26.74,8.36,6.4,28.65,21.2-20,26,8.12-40.11,32.25,15.18,51.72-27.19-8.49-6.6-29.65-22.29,20.62Z"/><path class="cls-55" d="M1951.09,1359.89q8.12-9.69,29.38-16.71,18.45-6.12,24.36-9.42,9.09-5.17,11.79-13.86a18.56,18.56,0,0,0-.28-13q-2.44-5.91-9.72-8.18c-6.66-2.08-11.94-1-15.89,3.22-2.25,2.44-4.5,6.74-6.69,12.91l-21.23-6.63c3.32-9.36,7.39-16.5,12.27-21.38q13.93-13.95,36.22-7,17.64,5.52,25,18.58c4.92,8.7,5.67,18.43,2.33,29.19a36.87,36.87,0,0,1-14.15,19.69q-6.82,4.88-20.31,9.26l-10.66,3.5c-6.68,2.19-11.28,3.84-13.85,5a25,25,0,0,0-7,4.49l48.5,15.15-6,19.3-76.11-23.79A54.67,54.67,0,0,1,1951.09,1359.89Z"/><path class="cls-55" d="M2069,1404.25c5,1.57,9.37,1.27,13.16-.86s6.52-6,8.23-11.43q2.64-8.54-.33-14.31t-10.3-8.07q-7.38-2.31-13.08.76c-3.77,2.06-6.56,5.92-8.33,11.61q-2.55,8.22.3,14.09T2069,1404.25Zm-8.27-51.16q-6.35-7.89-6.81-14.91a34.16,34.16,0,0,1,1.19-12.48,28.64,28.64,0,0,1,15.58-17.86q11.79-5.71,28.41-.53t23.08,16.62a28.67,28.67,0,0,1,2.67,23.56,34,34,0,0,1-6,11c-2.91,3.68-7.51,6.21-13.85,7.61a32.15,32.15,0,0,1,8.54,16.08,36.47,36.47,0,0,1-1.13,18.28,33.16,33.16,0,0,1-17.83,20.7q-13.43,6.64-32,.82t-25.16-18.69a34.75,34.75,0,0,1-2.12-26.94,35.54,35.54,0,0,1,9.54-15.66A28,28,0,0,1,2060.76,1353.09Zm24.24-.27q6.64,2.07,11.5-.62a14.63,14.63,0,0,0,6.72-8.78c1.37-4.41,1.19-8.24-.43-11.48s-4.72-5.56-9.15-7-8.21-1.2-11.47.51-5.56,4.77-6.93,9.17a14.36,14.36,0,0,0,.64,11.09Q2078.42,1350.77,2085,1352.82Z"/><path class="cls-55" d="M2156.69,1431.64c6.5,2,11.77,0,15.91-6.2s8.17-15.65,12.15-28.46q6.26-20.14,6.24-30.77c0-7.09-3.24-11.64-9.74-13.67s-11.8-.15-15.88,5.66-8.24,15.42-12.41,28.85q-6,19.21-6,30.39T2156.69,1431.64Zm50.62-27.61q-8.58,27.6-21.77,39.83t-34.39,5.62q-21.22-6.64-25.13-24.22t4.64-45.18q8.57-27.6,21.79-39.92t34.41-5.69q21.24,6.65,25.1,24.29T2207.31,1404Z"/><path class="cls-55" d="M2347.19,1420.39l-6.28,20.22-83-25.93,6.27-20.22Zm-11.15,35.9-6.28,20.22-83-25.93,6.28-20.22Z"/><path class="cls-55" d="M2391.64,1505.82c4.22.76,7.44.76,9.68,0q5.94-2,8.64-10.71a13.74,13.74,0,0,0-1.27-11.86c-1.36-2.06-3.9-4.54-7.71-7.48Zm17.66-82.61c-4.46-1.28-8.14-1.12-11,.48s-4.86,4.4-6.09,8.35a12.94,12.94,0,0,0,1.63,11.72,29.09,29.09,0,0,0,7.08,6.43Zm-27.61,115.26-7.45-2.33,4.75-15.3q-14.56-6.39-20.46-13.64-10.37-12.93-3.52-34.16l20.7,6.47q-2,10-1.06,13.92c.92,4,4.12,7.5,9.64,10.35l10.19-32.83-5.64-3.78q-13.31-8.88-16.92-18.45t-.25-20.4a36.77,36.77,0,0,1,6.35-12.27,31.28,31.28,0,0,1,9.71-8,30.4,30.4,0,0,1,14.42-3.76,58,58,0,0,1,12.47,1.79l3.18-10.23,7.28,2.28-3.22,10.38q12.16,4.89,17.71,12.28,10.42,12.27,5.13,30.86l-20.16-6.3c1-4.68,1.29-8.25.83-10.7-.82-4.25-3.71-7.34-8.73-9.31l-9.1,29.3c10.86,8,17.86,14.26,21.08,18.81,5.2,7.53,6.32,16.2,3.28,26-4,12.91-11.68,20.81-22.93,23.7a47,47,0,0,1-22.48-.11Z"/><path class="cls-55" d="M2475.79,1531.53a14.2,14.2,0,0,0,13.17-1.92q5.86-4.2,8.61-12.95,3-9.77-.12-16.44a15.87,15.87,0,0,0-10-8.82,16.17,16.17,0,0,0-10.94.29c-5.34,2-9.12,6.71-11.43,14.14-1.86,6-1.81,11.38.24,16.18A16.19,16.19,0,0,0,2475.79,1531.53Zm34.92-64.23a11.83,11.83,0,0,0-.23-6.57c-1.28-4.22-4.29-7.08-9-8.55q-10.68-3.35-18.92,7.25c-3,3.9-6.16,10-9.41,18.48a25.44,25.44,0,0,1,11.59-4.14,33.36,33.36,0,0,1,13,1.61q14.78,4.62,21.08,17.64t1.48,28.71a45.38,45.38,0,0,1-17.81,24.63q-13,9-32.51,2.91-21-6.55-25.49-27.28-3.49-16.18,3.29-37.93a171,171,0,0,1,7.52-20.42q6.33-13.62,14.8-21.35a39.37,39.37,0,0,1,16.45-9.11q9.22-2.52,20,.84,15.47,4.83,22.2,15.67t3.77,24.41Z"/><path class="cls-55" d="M2531.39,1541.23q8.12-9.69,29.39-16.71c12.3-4.08,20.45-7.21,24.36-9.42q9.09-5.17,11.79-13.86a18.82,18.82,0,0,0-.24-13c-1.63-3.94-4.87-6.66-9.76-8.19q-9.93-3.1-15.85,3.23c-2.3,2.43-4.5,6.74-6.73,12.9l-21.23-6.63c3.31-9.36,7.39-16.5,12.31-21.37q13.88-14,36.18-7,17.63,5.52,25,18.57T2619,1509a36.64,36.64,0,0,1-14.19,19.68c-4.55,3.25-11.28,6.35-20.27,9.27l-10.67,3.5c-6.67,2.19-11.31,3.83-13.88,4.94a27.49,27.49,0,0,0-7,4.48l48.51,15.16-6,19.3-76.07-23.77A54.72,54.72,0,0,1,2531.39,1541.23Z"/><path class="cls-55" d="M2691.34,1588.93l-12.58-3.93-7.45,24-21.36-6.67,7.45-24-44-13.75,5.94-19.14,61.85-54.89,24.51,7.66-21.63,69.65,12.58,3.93Zm-28.62-27.75,15-48.12-42.76,39.43Z"/><path class="cls-55" d="M2737,1613q9.73,3,15.95-6.18c4.09-6.18,8.17-15.66,12.15-28.47,4.17-13.42,6.22-23.69,6.24-30.77s-3.28-11.65-9.78-13.68-11.77-.13-15.88,5.66-8.24,15.42-12.41,28.85c-4,12.81-5.94,22.95-6,30.39S2730.5,1611,2737,1613Zm50.61-27.61q-8.57,27.6-21.72,39.85t-34.43,5.6q-21.24-6.64-25.13-24.22t4.63-45.18q8.58-27.6,21.79-39.92c8.82-8.21,20.26-10.11,34.42-5.69s22.53,12.52,25.14,24.3S2793.33,1567,2787.61,1585.37Z"/><path class="cls-55" d="M2824.28,1640.26c6.5,2,11.82,0,15.91-6.2s8.22-15.64,12.2-28.45q6.26-20.14,6.2-30.79c0-7.07-3.25-11.64-9.74-13.67s-11.77-.13-15.88,5.67-8.24,15.42-12.41,28.85q-6,19.2-6,30.38C2814.58,1633.5,2817.79,1638.23,2824.28,1640.26Zm50.62-27.61q-8.57,27.58-21.76,39.83t-34.39,5.61q-21.24-6.63-25.13-24.21t4.63-45.19q8.57-27.6,21.79-39.91t34.41-5.69q21.24,6.63,25.11,24.29T2874.9,1612.65Z"/><path class="cls-56" d="M1254.32,1338.52a89.73,89.73,0,0,1,6.21-41.76l132.66-337.17c15.56-39.56,53.65-63.57,85-53.59l1617.92,515a46.84,46.84,0,0,1,24.93,19.09c-2.37-23-14.83-41.63-34.83-48L1468.3,877.1c-31.35-10-69.44,14-85,53.58l-132.65,337.18C1240.3,1294.14,1242.49,1320.71,1254.32,1338.52Z"/><path class="cls-57" d="M2751.73,1285.66l-750,301.94L2464.61,1735l652.45-312.06c-5.53-14.77-16.16-26.08-30.85-30.76Zm-483-153.76-859.27,267.16-129.35-41.18L2145,1092.5Zm-960.95-9.25-57.13,145.21a93.5,93.5,0,0,0-6.51,29.54L2020.76,1053l-241-76.7Z"/><ellipse class="cls-58" cx="2304.66" cy="1916.01" rx="30.44" ry="89.18" transform="translate(-209.4 3547.58) rotate(-72.72)"/><ellipse class="cls-58" cx="1743.09" cy="1716.84" rx="30.44" ry="89.18" transform="translate(-414 2871.33) rotate(-72.72)"/><ellipse class="cls-58" cx="2039.09" cy="1821.01" rx="30.44" ry="89.18" transform="translate(-305.38 3227.21) rotate(-72.72)"/><ellipse class="cls-58" cx="1477.51" cy="1621.85" rx="30.44" ry="89.18" transform="translate(-510 2550.97) rotate(-72.72)"/><path class="cls-40" d="M1609.38,753.35s29.21-135.9,164.51-187l1631.46,466.82s-117.64,21.19-187,180.81Z"/><polygon class="cls-59" points="1824.02 627.56 3204.69 1013.32 3197.1 1022.55 1816.43 636.79 1824.02 627.56"/><polygon class="cls-59" points="1797.65 659.65 3178.32 1045.4 3170.74 1054.63 1790.07 668.88 1797.65 659.65"/><polygon class="cls-59" points="2201.21 873.3 3110.91 1127.46 3103.32 1136.7 2193.63 882.53 2201.21 873.3"/><path class="cls-60" d="M1609.38,753.35s29.21-135.9,164.51-187l1631.46,466.82s-117.64,21.19-187,180.81Z"/></g></g></g></svg>